<svg width="1920" height="957" xmlns="http://www.w3.org/2000/svg"><g><path d="M-75,-18L-93,209L-75,62Z" fill="#fffdf7" stroke="#fffdf7" fill-opacity="1" stroke-opacity="1"/><path d="M-75,-18L-75,62L103,67Z" fill="#fffbf5" stroke="#fffbf5" fill-opacity="1" stroke-opacity="1"/><path d="M-75,-18L103,67L88,-69Z" fill="#fff9f3" stroke="#fff9f3" fill-opacity="1" stroke-opacity="1"/><path d="M88,-69L103,67L236,-53Z" fill="#fff6ed" stroke="#fff6ed" fill-opacity="1" stroke-opacity="1"/><path d="M88,-69L236,-53L668,-116Z" fill="#ffefde" stroke="#ffefde" fill-opacity="1" stroke-opacity="1"/><path d="M236,-53L103,67L201,85Z" fill="#fff5e9" stroke="#fff5e9" fill-opacity="1" stroke-opacity="1"/><path d="M236,-53L201,85L363,32Z" fill="#fff2e3" stroke="#fff2e3" fill-opacity="1" stroke-opacity="1"/><path d="M236,-53L363,32L348,-46Z" fill="#ffefe0" stroke="#ffefe0" fill-opacity="1" stroke-opacity="1"/><path d="M236,-53L348,-46L668,-116Z" fill="#feebd6" stroke="#feebd6" fill-opacity="1" stroke-opacity="1"/><path d="M348,-46L363,32L559,-71Z" fill="#feead6" stroke="#feead6" fill-opacity="1" stroke-opacity="1"/><path d="M348,-46L559,-71L668,-116Z" fill="#fee5cc" stroke="#fee5cc" fill-opacity="1" stroke-opacity="1"/><path d="M559,-71L363,32L515,89Z" fill="#fee8d0" stroke="#fee8d0" fill-opacity="1" stroke-opacity="1"/><path d="M559,-71L515,89L616,16Z" fill="#fee2c7" stroke="#fee2c7" fill-opacity="1" stroke-opacity="1"/><path d="M559,-71L616,16L668,-116Z" fill="#fedec1" stroke="#fedec1" fill-opacity="1" stroke-opacity="1"/><path d="M668,-116L616,16L820,39Z" fill="#fed8b7" stroke="#fed8b7" fill-opacity="1" stroke-opacity="1"/><path d="M668,-116L820,39L826,-90Z" fill="#fed3b0" stroke="#fed3b0" fill-opacity="1" stroke-opacity="1"/><path d="M668,-116L826,-90L1124,-125Z" fill="#fecca6" stroke="#fecca6" fill-opacity="1" stroke-opacity="1"/><path d="M826,-90L820,39L1015,-59Z" fill="#fecba5" stroke="#fecba5" fill-opacity="1" stroke-opacity="1"/><path d="M826,-90L1015,-59L1124,-125Z" fill="#fec49b" stroke="#fec49b" fill-opacity="1" stroke-opacity="1"/><path d="M1015,-59L820,39L1030,21Z" fill="#fec79e" stroke="#fec79e" fill-opacity="1" stroke-opacity="1"/><path d="M1015,-59L1030,21L1124,-125Z" fill="#fcbf96" stroke="#fcbf96" fill-opacity="1" stroke-opacity="1"/><path d="M1124,-125L1030,21L1108,99Z" fill="#fbbd93" stroke="#fbbd93" fill-opacity="1" stroke-opacity="1"/><path d="M1124,-125L1108,99L1299,-35Z" fill="#f9b68b" stroke="#f9b68b" fill-opacity="1" stroke-opacity="1"/><path d="M1124,-125L1299,-35L1566,-84Z" fill="#f2ab84" stroke="#f2ab84" fill-opacity="1" stroke-opacity="1"/><path d="M1124,-125L1566,-84L1881,-112Z" fill="#df9f81" stroke="#df9f81" fill-opacity="1" stroke-opacity="1"/><path d="M1299,-35L1108,99L1330,56Z" fill="#f6b186" stroke="#f6b186" fill-opacity="1" stroke-opacity="1"/><path d="M1299,-35L1330,56L1404,-26Z" fill="#f1aa84" stroke="#f1aa84" fill-opacity="1" stroke-opacity="1"/><path d="M1299,-35L1404,-26L1566,-84Z" fill="#eda581" stroke="#eda581" fill-opacity="1" stroke-opacity="1"/><path d="M1404,-26L1330,56L1463,77Z" fill="#eea780" stroke="#eea780" fill-opacity="1" stroke-opacity="1"/><path d="M1404,-26L1463,77L1566,-84Z" fill="#e6a280" stroke="#e6a280" fill-opacity="1" stroke-opacity="1"/><path d="M1566,-84L1463,77L1614,77Z" fill="#db9e80" stroke="#db9e80" fill-opacity="1" stroke-opacity="1"/><path d="M1566,-84L1614,77L1693,-31Z" fill="#cf9981" stroke="#cf9981" fill-opacity="1" stroke-opacity="1"/><path d="M1566,-84L1693,-31L1881,-112Z" fill="#c09482" stroke="#c09482" fill-opacity="1" stroke-opacity="1"/><path d="M1693,-31L1614,77L1766,41Z" fill="#c49681" stroke="#c49681" fill-opacity="1" stroke-opacity="1"/><path d="M1693,-31L1766,41L1881,-112Z" fill="#b69182" stroke="#b69182" fill-opacity="1" stroke-opacity="1"/><path d="M1881,-112L1766,41L1820,66Z" fill="#af8e83" stroke="#af8e83" fill-opacity="1" stroke-opacity="1"/><path d="M1881,-112L1820,66L2032,-25Z" fill="#a18983" stroke="#a18983" fill-opacity="1" stroke-opacity="1"/><path d="M2032,-25L1820,66L2037,40Z" fill="#988683" stroke="#988683" fill-opacity="1" stroke-opacity="1"/><path d="M2032,-25L2037,40L2059,269Z" fill="#8c8281" stroke="#8c8281" fill-opacity="1" stroke-opacity="1"/><path d="M-75,62L-93,209L76,235Z" fill="#fffae8" stroke="#fffae8" fill-opacity="1" stroke-opacity="1"/><path d="M-75,62L76,235L103,67Z" fill="#fff9ee" stroke="#fff9ee" fill-opacity="1" stroke-opacity="1"/><path d="M103,67L76,235L201,85Z" fill="#fff6e7" stroke="#fff6e7" fill-opacity="1" stroke-opacity="1"/><path d="M201,85L76,235L280,212Z" fill="#fff3d9" stroke="#fff3d9" fill-opacity="1" stroke-opacity="1"/><path d="M201,85L280,212L363,32Z" fill="#fff1df" stroke="#fff1df" fill-opacity="1" stroke-opacity="1"/><path d="M363,32L280,212L413,251Z" fill="#ffecce" stroke="#ffecce" fill-opacity="1" stroke-opacity="1"/><path d="M363,32L413,251L515,89Z" fill="#feead0" stroke="#feead0" fill-opacity="1" stroke-opacity="1"/><path d="M515,89L413,251L481,270Z" fill="#fee6bb" stroke="#fee6bb" fill-opacity="1" stroke-opacity="1"/><path d="M515,89L481,270L624,200Z" fill="#fee2b6" stroke="#fee2b6" fill-opacity="1" stroke-opacity="1"/><path d="M515,89L624,200L616,16Z" fill="#fee0c1" stroke="#fee0c1" fill-opacity="1" stroke-opacity="1"/><path d="M616,16L624,200L820,39Z" fill="#fed9b6" stroke="#fed9b6" fill-opacity="1" stroke-opacity="1"/><path d="M820,39L624,200L851,218Z" fill="#fed3a5" stroke="#fed3a5" fill-opacity="1" stroke-opacity="1"/><path d="M820,39L851,218L987,177Z" fill="#fecb9b" stroke="#fecb9b" fill-opacity="1" stroke-opacity="1"/><path d="M820,39L987,177L1030,21Z" fill="#fec79c" stroke="#fec79c" fill-opacity="1" stroke-opacity="1"/><path d="M1030,21L987,177L1108,99Z" fill="#fcc093" stroke="#fcc093" fill-opacity="1" stroke-opacity="1"/><path d="M1108,99L987,177L1140,242Z" fill="#fbbc83" stroke="#fbbc83" fill-opacity="1" stroke-opacity="1"/><path d="M1108,99L1140,242L1282,233Z" fill="#f9b477" stroke="#f9b477" fill-opacity="1" stroke-opacity="1"/><path d="M1108,99L1282,233L1330,56Z" fill="#f6b181" stroke="#f6b181" fill-opacity="1" stroke-opacity="1"/><path d="M1330,56L1282,233L1399,261Z" fill="#f1a972" stroke="#f1a972" fill-opacity="1" stroke-opacity="1"/><path d="M1330,56L1399,261L1463,77Z" fill="#eea67b" stroke="#eea67b" fill-opacity="1" stroke-opacity="1"/><path d="M1463,77L1399,261L1632,278Z" fill="#e39e69" stroke="#e39e69" fill-opacity="1" stroke-opacity="1"/><path d="M1463,77L1632,278L1614,77Z" fill="#d79c77" stroke="#d79c77" fill-opacity="1" stroke-opacity="1"/><path d="M1614,77L1632,278L1774,209Z" fill="#c7956e" stroke="#c7956e" fill-opacity="1" stroke-opacity="1"/><path d="M1614,77L1774,209L1766,41Z" fill="#c0947e" stroke="#c0947e" fill-opacity="1" stroke-opacity="1"/><path d="M1766,41L1774,209L1820,66Z" fill="#b5907e" stroke="#b5907e" fill-opacity="1" stroke-opacity="1"/><path d="M1820,66L1774,209L1844,167Z" fill="#b08e78" stroke="#b08e78" fill-opacity="1" stroke-opacity="1"/><path d="M1820,66L1844,167L2037,40Z" fill="#a28a80" stroke="#a28a80" fill-opacity="1" stroke-opacity="1"/><path d="M2037,40L1844,167L2059,269Z" fill="#968477" stroke="#968477" fill-opacity="1" stroke-opacity="1"/><path d="M-93,209L-103,948L-89,361Z" fill="#ffcd9b" stroke="#ffcd9b" fill-opacity="1" stroke-opacity="1"/><path d="M-93,209L-89,361L76,235Z" fill="#fff3d0" stroke="#fff3d0" fill-opacity="1" stroke-opacity="1"/><path d="M76,235L-89,361L129,380Z" fill="#ffe7bc" stroke="#ffe7bc" fill-opacity="1" stroke-opacity="1"/><path d="M76,235L129,380L280,212Z" fill="#ffecc2" stroke="#ffecc2" fill-opacity="1" stroke-opacity="1"/><path d="M280,212L129,380L320,328Z" fill="#ffe4b5" stroke="#ffe4b5" fill-opacity="1" stroke-opacity="1"/><path d="M280,212L320,328L413,251Z" fill="#ffe7b8" stroke="#ffe7b8" fill-opacity="1" stroke-opacity="1"/><path d="M413,251L320,328L481,270Z" fill="#fee0ad" stroke="#fee0ad" fill-opacity="1" stroke-opacity="1"/><path d="M481,270L320,328L581,382Z" fill="#fed69c" stroke="#fed69c" fill-opacity="1" stroke-opacity="1"/><path d="M481,270L581,382L624,200Z" fill="#fed79c" stroke="#fed79c" fill-opacity="1" stroke-opacity="1"/><path d="M624,200L581,382L735,433Z" fill="#fec783" stroke="#fec783" fill-opacity="1" stroke-opacity="1"/><path d="M624,200L735,433L851,218Z" fill="#fecb88" stroke="#fecb88" fill-opacity="1" stroke-opacity="1"/><path d="M851,218L735,433L851,401Z" fill="#feba6f" stroke="#feba6f" fill-opacity="1" stroke-opacity="1"/><path d="M851,218L851,401L996,361Z" fill="#feb86d" stroke="#feb86d" fill-opacity="1" stroke-opacity="1"/><path d="M851,218L996,361L987,177Z" fill="#fec27d" stroke="#fec27d" fill-opacity="1" stroke-opacity="1"/><path d="M987,177L996,361L1140,242Z" fill="#fcb972" stroke="#fcb972" fill-opacity="1" stroke-opacity="1"/><path d="M1140,242L996,361L1110,429Z" fill="#fba857" stroke="#fba857" fill-opacity="1" stroke-opacity="1"/><path d="M1140,242L1110,429L1310,395Z" fill="#f99e4b" stroke="#f99e4b" fill-opacity="1" stroke-opacity="1"/><path d="M1140,242L1310,395L1282,233Z" fill="#f6a55b" stroke="#f6a55b" fill-opacity="1" stroke-opacity="1"/><path d="M1282,233L1310,395L1408,320Z" fill="#f29b50" stroke="#f29b50" fill-opacity="1" stroke-opacity="1"/><path d="M1282,233L1408,320L1399,261Z" fill="#f0a05b" stroke="#f0a05b" fill-opacity="1" stroke-opacity="1"/><path d="M1399,261L1408,320L1632,278Z" fill="#e69654" stroke="#e69654" fill-opacity="1" stroke-opacity="1"/><path d="M1632,278L1408,320L1551,404Z" fill="#de8b48" stroke="#de8b48" fill-opacity="1" stroke-opacity="1"/><path d="M1632,278L1551,404L1745,390Z" fill="#cc8142" stroke="#cc8142" fill-opacity="1" stroke-opacity="1"/><path d="M1632,278L1745,390L1774,209Z" fill="#c08854" stroke="#c08854" fill-opacity="1" stroke-opacity="1"/><path d="M1774,209L1745,390L1923,382Z" fill="#b07c4c" stroke="#b07c4c" fill-opacity="1" stroke-opacity="1"/><path d="M1774,209L1923,382L1844,167Z" fill="#ab8760" stroke="#ab8760" fill-opacity="1" stroke-opacity="1"/><path d="M1844,167L1923,382L2059,269Z" fill="#9c7f5b" stroke="#9c7f5b" fill-opacity="1" stroke-opacity="1"/><path d="M2059,269L1923,382L2029,409Z" fill="#926d45" stroke="#926d45" fill-opacity="1" stroke-opacity="1"/><path d="M2059,269L2029,409L2075,515Z" fill="#8a633b" stroke="#8a633b" fill-opacity="1" stroke-opacity="1"/><path d="M-89,361L-103,948L-86,699Z" fill="#ffb18d" stroke="#ffb18d" fill-opacity="1" stroke-opacity="1"/><path d="M-89,361L-86,699L-75,570Z" fill="#ffc694" stroke="#ffc694" fill-opacity="1" stroke-opacity="1"/><path d="M-89,361L-75,570L63,482Z" fill="#ffd19d" stroke="#ffd19d" fill-opacity="1" stroke-opacity="1"/><path d="M-89,361L63,482L129,380Z" fill="#ffd9a8" stroke="#ffd9a8" fill-opacity="1" stroke-opacity="1"/><path d="M129,380L63,482L200,480Z" fill="#ffd099" stroke="#ffd099" fill-opacity="1" stroke-opacity="1"/><path d="M129,380L200,480L284,418Z" fill="#ffd199" stroke="#ffd199" fill-opacity="1" stroke-opacity="1"/><path d="M129,380L284,418L320,328Z" fill="#ffd8a2" stroke="#ffd8a2" fill-opacity="1" stroke-opacity="1"/><path d="M284,418L200,480L393,557Z" fill="#ffc485" stroke="#ffc485" fill-opacity="1" stroke-opacity="1"/><path d="M284,418L393,557L320,328Z" fill="#ffca8d" stroke="#ffca8d" fill-opacity="1" stroke-opacity="1"/><path d="M320,328L393,557L581,382Z" fill="#fec786" stroke="#fec786" fill-opacity="1" stroke-opacity="1"/><path d="M581,382L393,557L519,560Z" fill="#feb770" stroke="#feb770" fill-opacity="1" stroke-opacity="1"/><path d="M581,382L519,560L646,544Z" fill="#feb267" stroke="#feb267" fill-opacity="1" stroke-opacity="1"/><path d="M581,382L646,544L735,433Z" fill="#feb467" stroke="#feb467" fill-opacity="1" stroke-opacity="1"/><path d="M735,433L646,544L865,555Z" fill="#fea351" stroke="#fea351" fill-opacity="1" stroke-opacity="1"/><path d="M735,433L865,555L851,401Z" fill="#fea753" stroke="#fea753" fill-opacity="1" stroke-opacity="1"/><path d="M851,401L865,555L958,568Z" fill="#fe9a44" stroke="#fe9a44" fill-opacity="1" stroke-opacity="1"/><path d="M851,401L958,568L996,361Z" fill="#fea24c" stroke="#fea24c" fill-opacity="1" stroke-opacity="1"/><path d="M996,361L958,568L1110,429Z" fill="#fd9a43" stroke="#fd9a43" fill-opacity="1" stroke-opacity="1"/><path d="M1110,429L958,568L1124,510Z" fill="#fc8e35" stroke="#fc8e35" fill-opacity="1" stroke-opacity="1"/><path d="M1110,429L1124,510L1310,395Z" fill="#f99037" stroke="#f99037" fill-opacity="1" stroke-opacity="1"/><path d="M1310,395L1124,510L1285,552Z" fill="#f6852b" stroke="#f6852b" fill-opacity="1" stroke-opacity="1"/><path d="M1310,395L1285,552L1437,520Z" fill="#f17d26" stroke="#f17d26" fill-opacity="1" stroke-opacity="1"/><path d="M1310,395L1437,520L1408,320Z" fill="#ef8736" stroke="#ef8736" fill-opacity="1" stroke-opacity="1"/><path d="M1408,320L1437,520L1551,404Z" fill="#e88133" stroke="#e88133" fill-opacity="1" stroke-opacity="1"/><path d="M1551,404L1437,520L1564,466Z" fill="#e07628" stroke="#e07628" fill-opacity="1" stroke-opacity="1"/><path d="M1551,404L1564,466L1745,390Z" fill="#cf7833" stroke="#cf7833" fill-opacity="1" stroke-opacity="1"/><path d="M1745,390L1564,466L1683,561Z" fill="#c86d27" stroke="#c86d27" fill-opacity="1" stroke-opacity="1"/><path d="M1745,390L1683,561L1897,520Z" fill="#b76324" stroke="#b76324" fill-opacity="1" stroke-opacity="1"/><path d="M1745,390L1897,520L1923,382Z" fill="#aa6932" stroke="#aa6932" fill-opacity="1" stroke-opacity="1"/><path d="M1923,382L1897,520L2029,409Z" fill="#9a6331" stroke="#9a6331" fill-opacity="1" stroke-opacity="1"/><path d="M2029,409L1897,520L2075,515Z" fill="#925827" stroke="#925827" fill-opacity="1" stroke-opacity="1"/><path d="M-75,570L-86,699L29,634Z" fill="#ffb58a" stroke="#ffb58a" fill-opacity="1" stroke-opacity="1"/><path d="M-75,570L29,634L63,482Z" fill="#ffc08c" stroke="#ffc08c" fill-opacity="1" stroke-opacity="1"/><path d="M63,482L29,634L200,480Z" fill="#ffc28b" stroke="#ffc28b" fill-opacity="1" stroke-opacity="1"/><path d="M200,480L29,634L279,653Z" fill="#ffb57f" stroke="#ffb57f" fill-opacity="1" stroke-opacity="1"/><path d="M200,480L279,653L393,557Z" fill="#ffb679" stroke="#ffb679" fill-opacity="1" stroke-opacity="1"/><path d="M393,557L279,653L394,641Z" fill="#ffa96e" stroke="#ffa96e" fill-opacity="1" stroke-opacity="1"/><path d="M393,557L394,641L476,652Z" fill="#fea668" stroke="#fea668" fill-opacity="1" stroke-opacity="1"/><path d="M393,557L476,652L519,560Z" fill="#fea966" stroke="#fea966" fill-opacity="1" stroke-opacity="1"/><path d="M519,560L476,652L661,698Z" fill="#fe9b5b" stroke="#fe9b5b" fill-opacity="1" stroke-opacity="1"/><path d="M519,560L661,698L646,544Z" fill="#fe9d54" stroke="#fe9d54" fill-opacity="1" stroke-opacity="1"/><path d="M646,544L661,698L865,555Z" fill="#fe9547" stroke="#fe9547" fill-opacity="1" stroke-opacity="1"/><path d="M865,555L661,698L877,692Z" fill="#fe883f" stroke="#fe883f" fill-opacity="1" stroke-opacity="1"/><path d="M865,555L877,692L934,615Z" fill="#fe8636" stroke="#fe8636" fill-opacity="1" stroke-opacity="1"/><path d="M865,555L934,615L958,568Z" fill="#fe8c37" stroke="#fe8c37" fill-opacity="1" stroke-opacity="1"/><path d="M958,568L934,615L1172,670Z" fill="#fd7e2b" stroke="#fd7e2b" fill-opacity="1" stroke-opacity="1"/><path d="M958,568L1172,670L1124,510Z" fill="#fb7f28" stroke="#fb7f28" fill-opacity="1" stroke-opacity="1"/><path d="M1124,510L1172,670L1285,552Z" fill="#f8771f" stroke="#f8771f" fill-opacity="1" stroke-opacity="1"/><path d="M1285,552L1172,670L1283,655Z" fill="#f66c19" stroke="#f66c19" fill-opacity="1" stroke-opacity="1"/><path d="M1285,552L1283,655L1376,690Z" fill="#f36617" stroke="#f36617" fill-opacity="1" stroke-opacity="1"/><path d="M1285,552L1376,690L1437,520Z" fill="#f06a17" stroke="#f06a17" fill-opacity="1" stroke-opacity="1"/><path d="M1437,520L1376,690L1618,703Z" fill="#e65a12" stroke="#e65a12" fill-opacity="1" stroke-opacity="1"/><path d="M1437,520L1618,703L1564,466Z" fill="#dc6418" stroke="#dc6418" fill-opacity="1" stroke-opacity="1"/><path d="M1564,466L1618,703L1683,561Z" fill="#cf5d16" stroke="#cf5d16" fill-opacity="1" stroke-opacity="1"/><path d="M1683,561L1618,703L1687,677Z" fill="#c94e14" stroke="#c94e14" fill-opacity="1" stroke-opacity="1"/><path d="M1683,561L1687,677L1897,520Z" fill="#ba5316" stroke="#ba5316" fill-opacity="1" stroke-opacity="1"/><path d="M1897,520L1687,677L1931,698Z" fill="#ac4715" stroke="#ac4715" fill-opacity="1" stroke-opacity="1"/><path d="M1897,520L1931,698L2054,657Z" fill="#994116" stroke="#994116" fill-opacity="1" stroke-opacity="1"/><path d="M1897,520L2054,657L2075,515Z" fill="#91491b" stroke="#91491b" fill-opacity="1" stroke-opacity="1"/><path d="M2075,515L2054,657L2078,796Z" fill="#873616" stroke="#873616" fill-opacity="1" stroke-opacity="1"/><path d="M-86,699L-103,948L-79,809Z" fill="#da9b8d" stroke="#da9b8d" fill-opacity="1" stroke-opacity="1"/><path d="M-86,699L-79,809L60,833Z" fill="#e89e89" stroke="#e89e89" fill-opacity="1" stroke-opacity="1"/><path d="M-86,699L60,833L29,634Z" fill="#fea587" stroke="#fea587" fill-opacity="1" stroke-opacity="1"/><path d="M29,634L60,833L169,831Z" fill="#ee9d82" stroke="#ee9d82" fill-opacity="1" stroke-opacity="1"/><path d="M29,634L169,831L279,653Z" fill="#ffa37e" stroke="#ffa37e" fill-opacity="1" stroke-opacity="1"/><path d="M279,653L169,831L373,785Z" fill="#f19776" stroke="#f19776" fill-opacity="1" stroke-opacity="1"/><path d="M279,653L373,785L394,641Z" fill="#ff9d6f" stroke="#ff9d6f" fill-opacity="1" stroke-opacity="1"/><path d="M394,641L373,785L476,652Z" fill="#fe9a69" stroke="#fe9a69" fill-opacity="1" stroke-opacity="1"/><path d="M476,652L373,785L487,839Z" fill="#ef8f66" stroke="#ef8f66" fill-opacity="1" stroke-opacity="1"/><path d="M476,652L487,839L661,698Z" fill="#fa8d5c" stroke="#fa8d5c" fill-opacity="1" stroke-opacity="1"/><path d="M661,698L487,839L682,841Z" fill="#e38054" stroke="#e38054" fill-opacity="1" stroke-opacity="1"/><path d="M661,698L682,841L788,824Z" fill="#e57948" stroke="#e57948" fill-opacity="1" stroke-opacity="1"/><path d="M661,698L788,824L877,692Z" fill="#f77b42" stroke="#f77b42" fill-opacity="1" stroke-opacity="1"/><path d="M877,692L788,824L930,825Z" fill="#e77039" stroke="#e77039" fill-opacity="1" stroke-opacity="1"/><path d="M877,692L930,825L934,615Z" fill="#fe7634" stroke="#fe7634" fill-opacity="1" stroke-opacity="1"/><path d="M934,615L930,825L1121,835Z" fill="#ee6a2d" stroke="#ee6a2d" fill-opacity="1" stroke-opacity="1"/><path d="M934,615L1121,835L1172,670Z" fill="#fb6b26" stroke="#fb6b26" fill-opacity="1" stroke-opacity="1"/><path d="M1172,670L1121,835L1301,769Z" fill="#e95a1b" stroke="#e95a1b" fill-opacity="1" stroke-opacity="1"/><path d="M1172,670L1301,769L1283,655Z" fill="#f65f19" stroke="#f65f19" fill-opacity="1" stroke-opacity="1"/><path d="M1283,655L1301,769L1376,690Z" fill="#f25a17" stroke="#f25a17" fill-opacity="1" stroke-opacity="1"/><path d="M1376,690L1301,769L1397,802Z" fill="#e35015" stroke="#e35015" fill-opacity="1" stroke-opacity="1"/><path d="M1376,690L1397,802L1618,703Z" fill="#e34c12" stroke="#e34c12" fill-opacity="1" stroke-opacity="1"/><path d="M1618,703L1397,802L1618,860Z" fill="#c24013" stroke="#c24013" fill-opacity="1" stroke-opacity="1"/><path d="M1618,703L1618,860L1690,822Z" fill="#af3914" stroke="#af3914" fill-opacity="1" stroke-opacity="1"/><path d="M1618,703L1690,822L1687,677Z" fill="#c24114" stroke="#c24114" fill-opacity="1" stroke-opacity="1"/><path d="M1687,677L1690,822L1874,773Z" fill="#ac3814" stroke="#ac3814" fill-opacity="1" stroke-opacity="1"/><path d="M1687,677L1874,773L1931,698Z" fill="#ae3a15" stroke="#ae3a15" fill-opacity="1" stroke-opacity="1"/><path d="M1931,698L1874,773L2078,796Z" fill="#8b2d16" stroke="#8b2d16" fill-opacity="1" stroke-opacity="1"/><path d="M1931,698L2078,796L2054,657Z" fill="#8f2f16" stroke="#8f2f16" fill-opacity="1" stroke-opacity="1"/><path d="M-79,809L-103,948L62,933Z" fill="#bd8f8a" stroke="#bd8f8a" fill-opacity="1" stroke-opacity="1"/><path d="M-79,809L62,933L60,833Z" fill="#cc9286" stroke="#cc9286" fill-opacity="1" stroke-opacity="1"/><path d="M60,833L62,933L169,831Z" fill="#c98e81" stroke="#c98e81" fill-opacity="1" stroke-opacity="1"/><path d="M169,831L62,933L278,965Z" fill="#b8867d" stroke="#b8867d" fill-opacity="1" stroke-opacity="1"/><path d="M169,831L278,965L373,785Z" fill="#ca8976" stroke="#ca8976" fill-opacity="1" stroke-opacity="1"/><path d="M373,785L278,965L429,952Z" fill="#bb806e" stroke="#bb806e" fill-opacity="1" stroke-opacity="1"/><path d="M373,785L429,952L487,839Z" fill="#ca8267" stroke="#ca8267" fill-opacity="1" stroke-opacity="1"/><path d="M487,839L429,952L497,996Z" fill="#b17764" stroke="#b17764" fill-opacity="1" stroke-opacity="1"/><path d="M487,839L497,996L684,947Z" fill="#b1715a" stroke="#b1715a" fill-opacity="1" stroke-opacity="1"/><path d="M487,839L684,947L682,841Z" fill="#c47353" stroke="#c47353" fill-opacity="1" stroke-opacity="1"/><path d="M682,841L684,947L788,824Z" fill="#c66d47" stroke="#c66d47" fill-opacity="1" stroke-opacity="1"/><path d="M788,824L684,947L769,1034Z" fill="#ae6245" stroke="#ae6245" fill-opacity="1" stroke-opacity="1"/><path d="M788,824L769,1034L930,825Z" fill="#bd623d" stroke="#bd623d" fill-opacity="1" stroke-opacity="1"/><path d="M930,825L769,1034L1030,1032Z" fill="#a45335" stroke="#a45335" fill-opacity="1" stroke-opacity="1"/><path d="M930,825L1030,1032L1102,939Z" fill="#ae502b" stroke="#ae502b" fill-opacity="1" stroke-opacity="1"/><path d="M930,825L1102,939L1121,835Z" fill="#c55628" stroke="#c55628" fill-opacity="1" stroke-opacity="1"/><path d="M1121,835L1102,939L1303,939Z" fill="#b4481d" stroke="#b4481d" fill-opacity="1" stroke-opacity="1"/><path d="M1121,835L1303,939L1301,769Z" fill="#c64b1a" stroke="#c64b1a" fill-opacity="1" stroke-opacity="1"/><path d="M1301,769L1303,939L1397,802Z" fill="#c64616" stroke="#c64616" fill-opacity="1" stroke-opacity="1"/><path d="M1397,802L1303,939L1437,928Z" fill="#b03c15" stroke="#b03c15" fill-opacity="1" stroke-opacity="1"/><path d="M1397,802L1437,928L1618,860Z" fill="#b03913" stroke="#b03913" fill-opacity="1" stroke-opacity="1"/><path d="M1618,860L1437,928L1560,964Z" fill="#932e13" stroke="#932e13" fill-opacity="1" stroke-opacity="1"/><path d="M1618,860L1560,964L1689,936Z" fill="#852913" stroke="#852913" fill-opacity="1" stroke-opacity="1"/><path d="M1618,860L1689,936L1690,822Z" fill="#8f2d14" stroke="#8f2d14" fill-opacity="1" stroke-opacity="1"/><path d="M1690,822L1689,936L1862,916Z" fill="#7b2614" stroke="#7b2614" fill-opacity="1" stroke-opacity="1"/><path d="M1690,822L1862,916L1874,773Z" fill="#852a15" stroke="#852a15" fill-opacity="1" stroke-opacity="1"/><path d="M1874,773L1862,916L1972,937Z" fill="#682015" stroke="#682015" fill-opacity="1" stroke-opacity="1"/><path d="M1874,773L1972,937L2078,796Z" fill="#6b2116" stroke="#6b2116" fill-opacity="1" stroke-opacity="1"/><path d="M2078,796L1972,937L2076,1112Z" fill="#370d16" stroke="#370d16" fill-opacity="1" stroke-opacity="1"/><path d="M-103,948L-70,1146L73,1114Z" fill="#807c89" stroke="#807c89" fill-opacity="1" stroke-opacity="1"/><path d="M-103,948L73,1114L62,933Z" fill="#987f87" stroke="#987f87" fill-opacity="1" stroke-opacity="1"/><path d="M62,933L73,1114L167,1087Z" fill="#877881" stroke="#877881" fill-opacity="1" stroke-opacity="1"/><path d="M62,933L167,1087L278,965Z" fill="#997a7d" stroke="#997a7d" fill-opacity="1" stroke-opacity="1"/><path d="M278,965L167,1087L334,1111Z" fill="#837277" stroke="#837277" fill-opacity="1" stroke-opacity="1"/><path d="M278,965L334,1111L429,952Z" fill="#94716f" stroke="#94716f" fill-opacity="1" stroke-opacity="1"/><path d="M429,952L334,1111L497,996Z" fill="#8f6d68" stroke="#8f6d68" fill-opacity="1" stroke-opacity="1"/><path d="M497,996L334,1111L576,1146Z" fill="#7f6964" stroke="#7f6964" fill-opacity="1" stroke-opacity="1"/><path d="M497,996L576,1146L652,1073Z" fill="#7f6258" stroke="#7f6258" fill-opacity="1" stroke-opacity="1"/><path d="M497,996L652,1073L684,947Z" fill="#946254" stroke="#946254" fill-opacity="1" stroke-opacity="1"/><path d="M684,947L652,1073L769,1034Z" fill="#905a49" stroke="#905a49" fill-opacity="1" stroke-opacity="1"/><path d="M769,1034L652,1073L771,1184Z" fill="#7f5746" stroke="#7f5746" fill-opacity="1" stroke-opacity="1"/><path d="M769,1034L771,1184L978,1171Z" fill="#7f4f3c" stroke="#7f4f3c" fill-opacity="1" stroke-opacity="1"/><path d="M769,1034L978,1171L1030,1032Z" fill="#7f4933" stroke="#7f4933" fill-opacity="1" stroke-opacity="1"/><path d="M1030,1032L978,1171L1114,1172Z" fill="#7d4129" stroke="#7d4129" fill-opacity="1" stroke-opacity="1"/><path d="M1030,1032L1114,1172L1224,1127Z" fill="#7b3b22" stroke="#7b3b22" fill-opacity="1" stroke-opacity="1"/><path d="M1030,1032L1224,1127L1102,939Z" fill="#863b22" stroke="#863b22" fill-opacity="1" stroke-opacity="1"/><path d="M1102,939L1224,1127L1303,939Z" fill="#8f381b" stroke="#8f381b" fill-opacity="1" stroke-opacity="1"/><path d="M1303,939L1224,1127L1393,1118Z" fill="#742d17" stroke="#742d17" fill-opacity="1" stroke-opacity="1"/><path d="M1303,939L1393,1118L1437,928Z" fill="#892e15" stroke="#892e15" fill-opacity="1" stroke-opacity="1"/><path d="M1437,928L1393,1118L1560,964Z" fill="#802612" stroke="#802612" fill-opacity="1" stroke-opacity="1"/><path d="M1560,964L1393,1118L1611,1149Z" fill="#602013" stroke="#602013" fill-opacity="1" stroke-opacity="1"/><path d="M1560,964L1611,1149L1689,936Z" fill="#611c13" stroke="#611c13" fill-opacity="1" stroke-opacity="1"/><path d="M1689,936L1611,1149L1762,1183Z" fill="#451614" stroke="#451614" fill-opacity="1" stroke-opacity="1"/><path d="M1689,936L1762,1183L1853,1149Z" fill="#381214" stroke="#381214" fill-opacity="1" stroke-opacity="1"/><path d="M1689,936L1853,1149L1862,916Z" fill="#4a1415" stroke="#4a1415" fill-opacity="1" stroke-opacity="1"/><path d="M1862,916L1853,1149L1972,937Z" fill="#3b0f15" stroke="#3b0f15" fill-opacity="1" stroke-opacity="1"/><path d="M1972,937L1853,1149L2076,1112Z" fill="#180716" stroke="#180716" fill-opacity="1" stroke-opacity="1"/><path d="M-70,1146L771,1184L576,1146Z" fill="#7f6b68" stroke="#7f6b68" fill-opacity="1" stroke-opacity="1"/><path d="M-70,1146L576,1146L334,1111Z" fill="#7f7175" stroke="#7f7175" fill-opacity="1" stroke-opacity="1"/><path d="M-70,1146L334,1111L73,1114Z" fill="#807780" stroke="#807780" fill-opacity="1" stroke-opacity="1"/><path d="M73,1114L334,1111L167,1087Z" fill="#7f757c" stroke="#7f757c" fill-opacity="1" stroke-opacity="1"/><path d="M576,1146L771,1184L652,1073Z" fill="#7f5b4d" stroke="#7f5b4d" fill-opacity="1" stroke-opacity="1"/><path d="M771,1184L1762,1183L1114,1172Z" fill="#78341b" stroke="#78341b" fill-opacity="1" stroke-opacity="1"/><path d="M771,1184L1114,1172L978,1171Z" fill="#7f4730" stroke="#7f4730" fill-opacity="1" stroke-opacity="1"/><path d="M1114,1172L1762,1183L1611,1149Z" fill="#642113" stroke="#642113" fill-opacity="1" stroke-opacity="1"/><path d="M1114,1172L1611,1149L1393,1118Z" fill="#702915" stroke="#702915" fill-opacity="1" stroke-opacity="1"/><path d="M1114,1172L1393,1118L1224,1127Z" fill="#77321a" stroke="#77321a" fill-opacity="1" stroke-opacity="1"/><path d="M1762,1183L2076,1112L1853,1149Z" fill="#230b15" stroke="#230b15" fill-opacity="1" stroke-opacity="1"/></g></svg>