<svg width="1920" height="957" xmlns="http://www.w3.org/2000/svg"><g><path d="M-132,-131L-119,1175L-128,216Z" fill="#cdf6cb" stroke="#cdf6cb" fill-opacity="1" stroke-opacity="1"/><path d="M-132,-131L-128,216L-58,61Z" fill="#f8fef6" stroke="#f8fef6" fill-opacity="1" stroke-opacity="1"/><path d="M-132,-131L-58,61L41,22Z" fill="#f9fdf7" stroke="#f9fdf7" fill-opacity="1" stroke-opacity="1"/><path d="M-132,-131L41,22L110,-55Z" fill="#f6fcf4" stroke="#f6fcf4" fill-opacity="1" stroke-opacity="1"/><path d="M-132,-131L110,-55L231,-100Z" fill="#f3faf0" stroke="#f3faf0" fill-opacity="1" stroke-opacity="1"/><path d="M-132,-131L231,-100L1070,-125Z" fill="#e2f4de" stroke="#e2f4de" fill-opacity="1" stroke-opacity="1"/><path d="M-132,-131L1070,-125L1432,-127Z" fill="#c6e7c6" stroke="#c6e7c6" fill-opacity="1" stroke-opacity="1"/><path d="M-132,-131L1432,-127L2072,-134Z" fill="#acd8b2" stroke="#acd8b2" fill-opacity="1" stroke-opacity="1"/><path d="M110,-55L41,22L199,57Z" fill="#f0f9ed" stroke="#f0f9ed" fill-opacity="1" stroke-opacity="1"/><path d="M110,-55L199,57L231,-100Z" fill="#edf8ea" stroke="#edf8ea" fill-opacity="1" stroke-opacity="1"/><path d="M231,-100L199,57L353,-37Z" fill="#e8f6e6" stroke="#e8f6e6" fill-opacity="1" stroke-opacity="1"/><path d="M231,-100L353,-37L547,-46Z" fill="#e2f4df" stroke="#e2f4df" fill-opacity="1" stroke-opacity="1"/><path d="M231,-100L547,-46L670,-68Z" fill="#ddf2d9" stroke="#ddf2d9" fill-opacity="1" stroke-opacity="1"/><path d="M231,-100L670,-68L1070,-125Z" fill="#d0ecce" stroke="#d0ecce" fill-opacity="1" stroke-opacity="1"/><path d="M353,-37L199,57L410,84Z" fill="#e3f5df" stroke="#e3f5df" fill-opacity="1" stroke-opacity="1"/><path d="M353,-37L410,84L547,-46Z" fill="#dff3dc" stroke="#dff3dc" fill-opacity="1" stroke-opacity="1"/><path d="M547,-46L410,84L580,98Z" fill="#d7f1d3" stroke="#d7f1d3" fill-opacity="1" stroke-opacity="1"/><path d="M547,-46L580,98L641,76Z" fill="#d2eecf" stroke="#d2eecf" fill-opacity="1" stroke-opacity="1"/><path d="M547,-46L641,76L670,-68Z" fill="#d3edd0" stroke="#d3edd0" fill-opacity="1" stroke-opacity="1"/><path d="M670,-68L641,76L862,66Z" fill="#c9eac8" stroke="#c9eac8" fill-opacity="1" stroke-opacity="1"/><path d="M670,-68L862,66L836,-79Z" fill="#c6e7c6" stroke="#c6e7c6" fill-opacity="1" stroke-opacity="1"/><path d="M670,-68L836,-79L1070,-125Z" fill="#c1e5c1" stroke="#c1e5c1" fill-opacity="1" stroke-opacity="1"/><path d="M836,-79L862,66L988,-73Z" fill="#bee4bf" stroke="#bee4bf" fill-opacity="1" stroke-opacity="1"/><path d="M836,-79L988,-73L1070,-125Z" fill="#b9e1bb" stroke="#b9e1bb" fill-opacity="1" stroke-opacity="1"/><path d="M988,-73L862,66L966,74Z" fill="#bae2ba" stroke="#bae2ba" fill-opacity="1" stroke-opacity="1"/><path d="M988,-73L966,74L1093,74Z" fill="#b4deb6" stroke="#b4deb6" fill-opacity="1" stroke-opacity="1"/><path d="M988,-73L1093,74L1070,-125Z" fill="#b2dcb6" stroke="#b2dcb6" fill-opacity="1" stroke-opacity="1"/><path d="M1070,-125L1093,74L1334,-116Z" fill="#a8d6b0" stroke="#a8d6b0" fill-opacity="1" stroke-opacity="1"/><path d="M1070,-125L1334,-116L1432,-127Z" fill="#9fcfaa" stroke="#9fcfaa" fill-opacity="1" stroke-opacity="1"/><path d="M1334,-116L1093,74L1273,123Z" fill="#a1d2aa" stroke="#a1d2aa" fill-opacity="1" stroke-opacity="1"/><path d="M1334,-116L1273,123L1475,22Z" fill="#97caa5" stroke="#97caa5" fill-opacity="1" stroke-opacity="1"/><path d="M1334,-116L1475,22L1432,-127Z" fill="#93c7a4" stroke="#93c7a4" fill-opacity="1" stroke-opacity="1"/><path d="M1432,-127L1475,22L1563,-122Z" fill="#8dc2a0" stroke="#8dc2a0" fill-opacity="1" stroke-opacity="1"/><path d="M1432,-127L1563,-122L2072,-134Z" fill="#80b696" stroke="#80b696" fill-opacity="1" stroke-opacity="1"/><path d="M1563,-122L1475,22L1624,84Z" fill="#88be9c" stroke="#88be9c" fill-opacity="1" stroke-opacity="1"/><path d="M1563,-122L1624,84L1726,-119Z" fill="#81ba98" stroke="#81ba98" fill-opacity="1" stroke-opacity="1"/><path d="M1563,-122L1726,-119L2072,-134Z" fill="#80b191" stroke="#80b191" fill-opacity="1" stroke-opacity="1"/><path d="M1726,-119L1624,84L1823,-56Z" fill="#80b494" stroke="#80b494" fill-opacity="1" stroke-opacity="1"/><path d="M1726,-119L1823,-56L2072,-134Z" fill="#80ac8c" stroke="#80ac8c" fill-opacity="1" stroke-opacity="1"/><path d="M1823,-56L1624,84L1779,118Z" fill="#7cb38e" stroke="#7cb38e" fill-opacity="1" stroke-opacity="1"/><path d="M1823,-56L1779,118L1899,55Z" fill="#7dae8b" stroke="#7dae8b" fill-opacity="1" stroke-opacity="1"/><path d="M1823,-56L1899,55L2072,-134Z" fill="#80a889" stroke="#80a889" fill-opacity="1" stroke-opacity="1"/><path d="M2072,-134L1899,55L2081,61Z" fill="#80a385" stroke="#80a385" fill-opacity="1" stroke-opacity="1"/><path d="M-58,61L-128,216L85,183Z" fill="#eefce9" stroke="#eefce9" fill-opacity="1" stroke-opacity="1"/><path d="M-58,61L85,183L41,22Z" fill="#effbeb" stroke="#effbeb" fill-opacity="1" stroke-opacity="1"/><path d="M41,22L85,183L199,57Z" fill="#eaf9e7" stroke="#eaf9e7" fill-opacity="1" stroke-opacity="1"/><path d="M199,57L85,183L221,180Z" fill="#e4f8de" stroke="#e4f8de" fill-opacity="1" stroke-opacity="1"/><path d="M199,57L221,180L410,84Z" fill="#e0f6db" stroke="#e0f6db" fill-opacity="1" stroke-opacity="1"/><path d="M410,84L221,180L391,187Z" fill="#daf5d4" stroke="#daf5d4" fill-opacity="1" stroke-opacity="1"/><path d="M410,84L391,187L580,98Z" fill="#d5f2cf" stroke="#d5f2cf" fill-opacity="1" stroke-opacity="1"/><path d="M580,98L391,187L584,239Z" fill="#cef0c7" stroke="#cef0c7" fill-opacity="1" stroke-opacity="1"/><path d="M580,98L584,239L631,188Z" fill="#c8eec2" stroke="#c8eec2" fill-opacity="1" stroke-opacity="1"/><path d="M580,98L631,188L641,76Z" fill="#caedc6" stroke="#caedc6" fill-opacity="1" stroke-opacity="1"/><path d="M641,76L631,188L833,189Z" fill="#c2eabe" stroke="#c2eabe" fill-opacity="1" stroke-opacity="1"/><path d="M641,76L833,189L862,66Z" fill="#bfe8bd" stroke="#bfe8bd" fill-opacity="1" stroke-opacity="1"/><path d="M862,66L833,189L960,199Z" fill="#b5e4b2" stroke="#b5e4b2" fill-opacity="1" stroke-opacity="1"/><path d="M862,66L960,199L966,74Z" fill="#b4e3b3" stroke="#b4e3b3" fill-opacity="1" stroke-opacity="1"/><path d="M966,74L960,199L1093,74Z" fill="#aedfae" stroke="#aedfae" fill-opacity="1" stroke-opacity="1"/><path d="M1093,74L960,199L1152,215Z" fill="#a6dba7" stroke="#a6dba7" fill-opacity="1" stroke-opacity="1"/><path d="M1093,74L1152,215L1273,123Z" fill="#9ed5a4" stroke="#9ed5a4" fill-opacity="1" stroke-opacity="1"/><path d="M1273,123L1152,215L1309,252Z" fill="#94d19b" stroke="#94d19b" fill-opacity="1" stroke-opacity="1"/><path d="M1273,123L1309,252L1382,264Z" fill="#8dcc96" stroke="#8dcc96" fill-opacity="1" stroke-opacity="1"/><path d="M1273,123L1382,264L1475,22Z" fill="#8dc999" stroke="#8dc999" fill-opacity="1" stroke-opacity="1"/><path d="M1475,22L1382,264L1557,284Z" fill="#82c390" stroke="#82c390" fill-opacity="1" stroke-opacity="1"/><path d="M1475,22L1557,284L1624,84Z" fill="#7fbf91" stroke="#7fbf91" fill-opacity="1" stroke-opacity="1"/><path d="M1624,84L1557,284L1739,282Z" fill="#71b985" stroke="#71b985" fill-opacity="1" stroke-opacity="1"/><path d="M1624,84L1739,282L1779,118Z" fill="#75b586" stroke="#75b586" fill-opacity="1" stroke-opacity="1"/><path d="M1779,118L1739,282L1857,165Z" fill="#73b080" stroke="#73b080" fill-opacity="1" stroke-opacity="1"/><path d="M1779,118L1857,165L1899,55Z" fill="#78ad84" stroke="#78ad84" fill-opacity="1" stroke-opacity="1"/><path d="M1899,55L1857,165L1996,218Z" fill="#76a97d" stroke="#76a97d" fill-opacity="1" stroke-opacity="1"/><path d="M1899,55L1996,218L2081,61Z" fill="#78a47c" stroke="#78a47c" fill-opacity="1" stroke-opacity="1"/><path d="M2081,61L1996,218L2072,384Z" fill="#71a170" stroke="#71a170" fill-opacity="1" stroke-opacity="1"/><path d="M2081,61L2072,384L2069,985Z" fill="#469549" stroke="#469549" fill-opacity="1" stroke-opacity="1"/><path d="M-128,216L-119,1175L-79,569Z" fill="#9edbac" stroke="#9edbac" fill-opacity="1" stroke-opacity="1"/><path d="M-128,216L-79,569L-78,331Z" fill="#d3f8d1" stroke="#d3f8d1" fill-opacity="1" stroke-opacity="1"/><path d="M-128,216L-78,331L85,183Z" fill="#e7fde1" stroke="#e7fde1" fill-opacity="1" stroke-opacity="1"/><path d="M85,183L-78,331L45,372Z" fill="#dbf9d6" stroke="#dbf9d6" fill-opacity="1" stroke-opacity="1"/><path d="M85,183L45,372L221,180Z" fill="#dff9d8" stroke="#dff9d8" fill-opacity="1" stroke-opacity="1"/><path d="M221,180L45,372L253,398Z" fill="#cff5ca" stroke="#cff5ca" fill-opacity="1" stroke-opacity="1"/><path d="M221,180L253,398L391,187Z" fill="#d3f5cd" stroke="#d3f5cd" fill-opacity="1" stroke-opacity="1"/><path d="M391,187L253,398L431,379Z" fill="#c4f1bf" stroke="#c4f1bf" fill-opacity="1" stroke-opacity="1"/><path d="M391,187L431,379L484,372Z" fill="#c2f0bc" stroke="#c2f0bc" fill-opacity="1" stroke-opacity="1"/><path d="M391,187L484,372L584,239Z" fill="#c7f1c0" stroke="#c7f1c0" fill-opacity="1" stroke-opacity="1"/><path d="M584,239L484,372L617,420Z" fill="#b4ebb0" stroke="#b4ebb0" fill-opacity="1" stroke-opacity="1"/><path d="M584,239L617,420L631,188Z" fill="#bbebb5" stroke="#bbebb5" fill-opacity="1" stroke-opacity="1"/><path d="M631,188L617,420L864,384Z" fill="#ace6a8" stroke="#ace6a8" fill-opacity="1" stroke-opacity="1"/><path d="M631,188L864,384L833,189Z" fill="#b4e7af" stroke="#b4e7af" fill-opacity="1" stroke-opacity="1"/><path d="M833,189L864,384L960,199Z" fill="#ace3a8" stroke="#ace3a8" fill-opacity="1" stroke-opacity="1"/><path d="M960,199L864,384L1022,416Z" fill="#9ade98" stroke="#9ade98" fill-opacity="1" stroke-opacity="1"/><path d="M960,199L1022,416L1152,215Z" fill="#9cdb9c" stroke="#9cdb9c" fill-opacity="1" stroke-opacity="1"/><path d="M1152,215L1022,416L1179,385Z" fill="#8ad48f" stroke="#8ad48f" fill-opacity="1" stroke-opacity="1"/><path d="M1152,215L1179,385L1309,252Z" fill="#8cd192" stroke="#8cd192" fill-opacity="1" stroke-opacity="1"/><path d="M1309,252L1179,385L1285,427Z" fill="#7ccb85" stroke="#7ccb85" fill-opacity="1" stroke-opacity="1"/><path d="M1309,252L1285,427L1410,391Z" fill="#75c781" stroke="#75c781" fill-opacity="1" stroke-opacity="1"/><path d="M1309,252L1410,391L1382,264Z" fill="#7cc787" stroke="#7cc787" fill-opacity="1" stroke-opacity="1"/><path d="M1382,264L1410,391L1526,358Z" fill="#6fc17e" stroke="#6fc17e" fill-opacity="1" stroke-opacity="1"/><path d="M1382,264L1526,358L1557,284Z" fill="#72bf81" stroke="#72bf81" fill-opacity="1" stroke-opacity="1"/><path d="M1557,284L1526,358L1694,365Z" fill="#63b877" stroke="#63b877" fill-opacity="1" stroke-opacity="1"/><path d="M1557,284L1694,365L1739,282Z" fill="#63b577" stroke="#63b577" fill-opacity="1" stroke-opacity="1"/><path d="M1739,282L1694,365L1930,415Z" fill="#5bac6a" stroke="#5bac6a" fill-opacity="1" stroke-opacity="1"/><path d="M1739,282L1930,415L1857,165Z" fill="#67ab72" stroke="#67ab72" fill-opacity="1" stroke-opacity="1"/><path d="M1857,165L1930,415L1996,218Z" fill="#6ba770" stroke="#6ba770" fill-opacity="1" stroke-opacity="1"/><path d="M1996,218L1930,415L2072,384Z" fill="#5ea062" stroke="#5ea062" fill-opacity="1" stroke-opacity="1"/><path d="M-78,331L-79,569L45,372Z" fill="#c7f5c5" stroke="#c7f5c5" fill-opacity="1" stroke-opacity="1"/><path d="M45,372L-79,569L78,495Z" fill="#bbf1ba" stroke="#bbf1ba" fill-opacity="1" stroke-opacity="1"/><path d="M45,372L78,495L253,398Z" fill="#bff1bd" stroke="#bff1bd" fill-opacity="1" stroke-opacity="1"/><path d="M253,398L78,495L274,545Z" fill="#b1edb0" stroke="#b1edb0" fill-opacity="1" stroke-opacity="1"/><path d="M253,398L274,545L385,559Z" fill="#a7e8a8" stroke="#a7e8a8" fill-opacity="1" stroke-opacity="1"/><path d="M253,398L385,559L431,379Z" fill="#afebac" stroke="#afebac" fill-opacity="1" stroke-opacity="1"/><path d="M431,379L385,559L486,467Z" fill="#a7e9a4" stroke="#a7e9a4" fill-opacity="1" stroke-opacity="1"/><path d="M431,379L486,467L484,372Z" fill="#afebac" stroke="#afebac" fill-opacity="1" stroke-opacity="1"/><path d="M484,372L486,467L617,420Z" fill="#a9e8a6" stroke="#a9e8a6" fill-opacity="1" stroke-opacity="1"/><path d="M617,420L486,467L631,536Z" fill="#9ce49b" stroke="#9ce49b" fill-opacity="1" stroke-opacity="1"/><path d="M617,420L631,536L860,507Z" fill="#90de91" stroke="#90de91" fill-opacity="1" stroke-opacity="1"/><path d="M617,420L860,507L864,384Z" fill="#94df93" stroke="#94df93" fill-opacity="1" stroke-opacity="1"/><path d="M864,384L860,507L1006,505Z" fill="#85d987" stroke="#85d987" fill-opacity="1" stroke-opacity="1"/><path d="M864,384L1006,505L1022,416Z" fill="#86d988" stroke="#86d988" fill-opacity="1" stroke-opacity="1"/><path d="M1022,416L1006,505L1163,476Z" fill="#79d27e" stroke="#79d27e" fill-opacity="1" stroke-opacity="1"/><path d="M1022,416L1163,476L1179,385Z" fill="#7bd082" stroke="#7bd082" fill-opacity="1" stroke-opacity="1"/><path d="M1179,385L1163,476L1285,427Z" fill="#73ca7d" stroke="#73ca7d" fill-opacity="1" stroke-opacity="1"/><path d="M1285,427L1163,476L1251,513Z" fill="#69c875" stroke="#69c875" fill-opacity="1" stroke-opacity="1"/><path d="M1285,427L1251,513L1395,584Z" fill="#5cbe6c" stroke="#5cbe6c" fill-opacity="1" stroke-opacity="1"/><path d="M1285,427L1395,584L1410,391Z" fill="#5fc06f" stroke="#5fc06f" fill-opacity="1" stroke-opacity="1"/><path d="M1410,391L1395,584L1563,535Z" fill="#50b665" stroke="#50b665" fill-opacity="1" stroke-opacity="1"/><path d="M1410,391L1563,535L1526,358Z" fill="#5bb96e" stroke="#5bb96e" fill-opacity="1" stroke-opacity="1"/><path d="M1526,358L1563,535L1685,483Z" fill="#4db365" stroke="#4db365" fill-opacity="1" stroke-opacity="1"/><path d="M1526,358L1685,483L1694,365Z" fill="#54b36b" stroke="#54b36b" fill-opacity="1" stroke-opacity="1"/><path d="M1694,365L1685,483L1930,415Z" fill="#4faa61" stroke="#4faa61" fill-opacity="1" stroke-opacity="1"/><path d="M1930,415L1685,483L1919,534Z" fill="#45a355" stroke="#45a355" fill-opacity="1" stroke-opacity="1"/><path d="M1930,415L1919,534L1986,536Z" fill="#429a4d" stroke="#429a4d" fill-opacity="1" stroke-opacity="1"/><path d="M1930,415L1986,536L2072,384Z" fill="#4b9b52" stroke="#4b9b52" fill-opacity="1" stroke-opacity="1"/><path d="M2072,384L1986,536L2031,826Z" fill="#30893e" stroke="#30893e" fill-opacity="1" stroke-opacity="1"/><path d="M2072,384L2031,826L2069,985Z" fill="#12722b" stroke="#12722b" fill-opacity="1" stroke-opacity="1"/><path d="M-79,569L-119,1175L-43,775Z" fill="#7bbf93" stroke="#7bbf93" fill-opacity="1" stroke-opacity="1"/><path d="M-79,569L-43,775L-49,657Z" fill="#99d7a7" stroke="#99d7a7" fill-opacity="1" stroke-opacity="1"/><path d="M-79,569L-49,657L78,495Z" fill="#a9e4b1" stroke="#a9e4b1" fill-opacity="1" stroke-opacity="1"/><path d="M78,495L-49,657L126,621Z" fill="#a2e0aa" stroke="#a2e0aa" fill-opacity="1" stroke-opacity="1"/><path d="M78,495L126,621L274,545Z" fill="#a4e3a9" stroke="#a4e3a9" fill-opacity="1" stroke-opacity="1"/><path d="M274,545L126,621L198,682Z" fill="#95da9f" stroke="#95da9f" fill-opacity="1" stroke-opacity="1"/><path d="M274,545L198,682L332,770Z" fill="#88d195" stroke="#88d195" fill-opacity="1" stroke-opacity="1"/><path d="M274,545L332,770L385,559Z" fill="#8dd597" stroke="#8dd597" fill-opacity="1" stroke-opacity="1"/><path d="M385,559L332,770L430,703Z" fill="#7fcd8d" stroke="#7fcd8d" fill-opacity="1" stroke-opacity="1"/><path d="M385,559L430,703L572,711Z" fill="#7fce8b" stroke="#7fce8b" fill-opacity="1" stroke-opacity="1"/><path d="M385,559L572,711L486,467Z" fill="#8ed994" stroke="#8ed994" fill-opacity="1" stroke-opacity="1"/><path d="M486,467L572,711L631,536Z" fill="#89d78f" stroke="#89d78f" fill-opacity="1" stroke-opacity="1"/><path d="M631,536L572,711L696,675Z" fill="#76cb83" stroke="#76cb83" fill-opacity="1" stroke-opacity="1"/><path d="M631,536L696,675L860,507Z" fill="#7dd185" stroke="#7dd185" fill-opacity="1" stroke-opacity="1"/><path d="M860,507L696,675L815,700Z" fill="#6ec87a" stroke="#6ec87a" fill-opacity="1" stroke-opacity="1"/><path d="M860,507L815,700L1030,680Z" fill="#65c473" stroke="#65c473" fill-opacity="1" stroke-opacity="1"/><path d="M860,507L1030,680L1006,505Z" fill="#6dcb77" stroke="#6dcb77" fill-opacity="1" stroke-opacity="1"/><path d="M1006,505L1030,680L1109,681Z" fill="#5bbe6c" stroke="#5bbe6c" fill-opacity="1" stroke-opacity="1"/><path d="M1006,505L1109,681L1163,476Z" fill="#65c571" stroke="#65c571" fill-opacity="1" stroke-opacity="1"/><path d="M1163,476L1109,681L1251,513Z" fill="#5dc06d" stroke="#5dc06d" fill-opacity="1" stroke-opacity="1"/><path d="M1251,513L1109,681L1332,653Z" fill="#4cb463" stroke="#4cb463" fill-opacity="1" stroke-opacity="1"/><path d="M1251,513L1332,653L1395,584Z" fill="#4bb362" stroke="#4bb362" fill-opacity="1" stroke-opacity="1"/><path d="M1395,584L1332,653L1423,673Z" fill="#3ca859" stroke="#3ca859" fill-opacity="1" stroke-opacity="1"/><path d="M1395,584L1423,673L1563,535Z" fill="#3da95a" stroke="#3da95a" fill-opacity="1" stroke-opacity="1"/><path d="M1563,535L1423,673L1589,624Z" fill="#35a354" stroke="#35a354" fill-opacity="1" stroke-opacity="1"/><path d="M1563,535L1589,624L1685,483Z" fill="#3aa758" stroke="#3aa758" fill-opacity="1" stroke-opacity="1"/><path d="M1685,483L1589,624L1706,684Z" fill="#2d9d50" stroke="#2d9d50" fill-opacity="1" stroke-opacity="1"/><path d="M1685,483L1706,684L1861,663Z" fill="#2b9649" stroke="#2b9649" fill-opacity="1" stroke-opacity="1"/><path d="M1685,483L1861,663L1919,534Z" fill="#35994c" stroke="#35994c" fill-opacity="1" stroke-opacity="1"/><path d="M1919,534L1861,663L1976,709Z" fill="#25883d" stroke="#25883d" fill-opacity="1" stroke-opacity="1"/><path d="M1919,534L1976,709L1986,536Z" fill="#2e8b41" stroke="#2e8b41" fill-opacity="1" stroke-opacity="1"/><path d="M1986,536L1976,709L2031,826Z" fill="#1a7c33" stroke="#1a7c33" fill-opacity="1" stroke-opacity="1"/><path d="M-49,657L-43,775L126,621Z" fill="#92d4a1" stroke="#92d4a1" fill-opacity="1" stroke-opacity="1"/><path d="M126,621L-43,775L57,868Z" fill="#81c997" stroke="#81c997" fill-opacity="1" stroke-opacity="1"/><path d="M126,621L57,868L198,682Z" fill="#84cc96" stroke="#84cc96" fill-opacity="1" stroke-opacity="1"/><path d="M198,682L57,868L255,778Z" fill="#76c38d" stroke="#76c38d" fill-opacity="1" stroke-opacity="1"/><path d="M198,682L255,778L332,770Z" fill="#78c68c" stroke="#78c68c" fill-opacity="1" stroke-opacity="1"/><path d="M430,703L332,770L575,829Z" fill="#6abf7f" stroke="#6abf7f" fill-opacity="1" stroke-opacity="1"/><path d="M430,703L575,829L572,711Z" fill="#68bf7c" stroke="#68bf7c" fill-opacity="1" stroke-opacity="1"/><path d="M572,711L575,829L629,774Z" fill="#5fba75" stroke="#5fba75" fill-opacity="1" stroke-opacity="1"/><path d="M572,711L629,774L696,675Z" fill="#66c079" stroke="#66c079" fill-opacity="1" stroke-opacity="1"/><path d="M696,675L629,774L773,780Z" fill="#5dba72" stroke="#5dba72" fill-opacity="1" stroke-opacity="1"/><path d="M696,675L773,780L815,700Z" fill="#5dbc71" stroke="#5dbc71" fill-opacity="1" stroke-opacity="1"/><path d="M815,700L773,780L943,854Z" fill="#4bb164" stroke="#4bb164" fill-opacity="1" stroke-opacity="1"/><path d="M815,700L943,854L1030,680Z" fill="#4bb263" stroke="#4bb263" fill-opacity="1" stroke-opacity="1"/><path d="M1030,680L943,854L1154,833Z" fill="#39a657" stroke="#39a657" fill-opacity="1" stroke-opacity="1"/><path d="M1030,680L1154,833L1109,681Z" fill="#40ab5c" stroke="#40ab5c" fill-opacity="1" stroke-opacity="1"/><path d="M1109,681L1154,833L1217,826Z" fill="#31a053" stroke="#31a053" fill-opacity="1" stroke-opacity="1"/><path d="M1109,681L1217,826L1332,653Z" fill="#38a557" stroke="#38a557" fill-opacity="1" stroke-opacity="1"/><path d="M1332,653L1217,826L1423,673Z" fill="#30a052" stroke="#30a052" fill-opacity="1" stroke-opacity="1"/><path d="M1423,673L1217,826L1463,877Z" fill="#1d9346" stroke="#1d9346" fill-opacity="1" stroke-opacity="1"/><path d="M1423,673L1463,877L1584,826Z" fill="#138b40" stroke="#138b40" fill-opacity="1" stroke-opacity="1"/><path d="M1423,673L1584,826L1589,624Z" fill="#209548" stroke="#209548" fill-opacity="1" stroke-opacity="1"/><path d="M1589,624L1584,826L1706,684Z" fill="#188f43" stroke="#188f43" fill-opacity="1" stroke-opacity="1"/><path d="M1706,684L1584,826L1774,847Z" fill="#078137" stroke="#078137" fill-opacity="1" stroke-opacity="1"/><path d="M1706,684L1774,847L1861,663Z" fill="#128339" stroke="#128339" fill-opacity="1" stroke-opacity="1"/><path d="M1861,663L1774,847L1913,782Z" fill="#0b7a31" stroke="#0b7a31" fill-opacity="1" stroke-opacity="1"/><path d="M1861,663L1913,782L1976,709Z" fill="#157c33" stroke="#157c33" fill-opacity="1" stroke-opacity="1"/><path d="M1976,709L1913,782L2031,826Z" fill="#0a712a" stroke="#0a712a" fill-opacity="1" stroke-opacity="1"/><path d="M-43,775L-119,1175L-39,927Z" fill="#7aae84" stroke="#7aae84" fill-opacity="1" stroke-opacity="1"/><path d="M-43,775L-39,927L57,868Z" fill="#77bc8d" stroke="#77bc8d" fill-opacity="1" stroke-opacity="1"/><path d="M57,868L-39,927L134,953Z" fill="#74b282" stroke="#74b282" fill-opacity="1" stroke-opacity="1"/><path d="M57,868L134,953L255,778Z" fill="#6fb783" stroke="#6fb783" fill-opacity="1" stroke-opacity="1"/><path d="M255,778L134,953L239,989Z" fill="#6cb07a" stroke="#6cb07a" fill-opacity="1" stroke-opacity="1"/><path d="M255,778L239,989L332,770Z" fill="#68b87e" stroke="#68b87e" fill-opacity="1" stroke-opacity="1"/><path d="M332,770L239,989L317,1019Z" fill="#67ac74" stroke="#67ac74" fill-opacity="1" stroke-opacity="1"/><path d="M332,770L317,1019L473,1001Z" fill="#63a96f" stroke="#63a96f" fill-opacity="1" stroke-opacity="1"/><path d="M332,770L473,1001L575,829Z" fill="#5eb171" stroke="#5eb171" fill-opacity="1" stroke-opacity="1"/><path d="M575,829L473,1001L642,929Z" fill="#57a664" stroke="#57a664" fill-opacity="1" stroke-opacity="1"/><path d="M575,829L642,929L629,774Z" fill="#53af6b" stroke="#53af6b" fill-opacity="1" stroke-opacity="1"/><path d="M629,774L642,929L773,780Z" fill="#4faf68" stroke="#4faf68" fill-opacity="1" stroke-opacity="1"/><path d="M773,780L642,929L778,966Z" fill="#4ba45d" stroke="#4ba45d" fill-opacity="1" stroke-opacity="1"/><path d="M773,780L778,966L943,854Z" fill="#44a55a" stroke="#44a55a" fill-opacity="1" stroke-opacity="1"/><path d="M943,854L778,966L953,974Z" fill="#3f994e" stroke="#3f994e" fill-opacity="1" stroke-opacity="1"/><path d="M943,854L953,974L1101,982Z" fill="#379447" stroke="#379447" fill-opacity="1" stroke-opacity="1"/><path d="M943,854L1101,982L1154,833Z" fill="#31964a" stroke="#31964a" fill-opacity="1" stroke-opacity="1"/><path d="M1154,833L1101,982L1235,988Z" fill="#298a3f" stroke="#298a3f" fill-opacity="1" stroke-opacity="1"/><path d="M1154,833L1235,988L1217,826Z" fill="#268f43" stroke="#268f43" fill-opacity="1" stroke-opacity="1"/><path d="M1217,826L1235,988L1425,983Z" fill="#1e8339" stroke="#1e8339" fill-opacity="1" stroke-opacity="1"/><path d="M1217,826L1425,983L1463,877Z" fill="#188439" stroke="#188439" fill-opacity="1" stroke-opacity="1"/><path d="M1463,877L1425,983L1602,1026Z" fill="#0d732b" stroke="#0d732b" fill-opacity="1" stroke-opacity="1"/><path d="M1463,877L1602,1026L1584,826Z" fill="#08772f" stroke="#08772f" fill-opacity="1" stroke-opacity="1"/><path d="M1584,826L1602,1026L1726,990Z" fill="#016d25" stroke="#016d25" fill-opacity="1" stroke-opacity="1"/><path d="M1584,826L1726,990L1774,847Z" fill="#00722a" stroke="#00722a" fill-opacity="1" stroke-opacity="1"/><path d="M1774,847L1726,990L1897,920Z" fill="#006720" stroke="#006720" fill-opacity="1" stroke-opacity="1"/><path d="M1774,847L1897,920L1913,782Z" fill="#006d26" stroke="#006d26" fill-opacity="1" stroke-opacity="1"/><path d="M1913,782L1897,920L2031,826Z" fill="#006922" stroke="#006922" fill-opacity="1" stroke-opacity="1"/><path d="M2031,826L1897,920L2069,985Z" fill="#005c18" stroke="#005c18" fill-opacity="1" stroke-opacity="1"/><path d="M-39,927L-119,1175L88,1078Z" fill="#789f76" stroke="#789f76" fill-opacity="1" stroke-opacity="1"/><path d="M-39,927L88,1078L134,953Z" fill="#74a879" stroke="#74a879" fill-opacity="1" stroke-opacity="1"/><path d="M134,953L88,1078L239,989Z" fill="#6fa372" stroke="#6fa372" fill-opacity="1" stroke-opacity="1"/><path d="M239,989L88,1078L252,1133Z" fill="#6c9a6a" stroke="#6c9a6a" fill-opacity="1" stroke-opacity="1"/><path d="M239,989L252,1133L317,1019Z" fill="#689b66" stroke="#689b66" fill-opacity="1" stroke-opacity="1"/><path d="M317,1019L252,1133L403,1139Z" fill="#669363" stroke="#669363" fill-opacity="1" stroke-opacity="1"/><path d="M317,1019L403,1139L473,1001Z" fill="#62975e" stroke="#62975e" fill-opacity="1" stroke-opacity="1"/><path d="M473,1001L403,1139L520,1182Z" fill="#5e8e5b" stroke="#5e8e5b" fill-opacity="1" stroke-opacity="1"/><path d="M473,1001L520,1182L618,1161Z" fill="#598b56" stroke="#598b56" fill-opacity="1" stroke-opacity="1"/><path d="M473,1001L618,1161L642,929Z" fill="#569556" stroke="#569556" fill-opacity="1" stroke-opacity="1"/><path d="M642,929L618,1161L778,966Z" fill="#4f9451" stroke="#4f9451" fill-opacity="1" stroke-opacity="1"/><path d="M778,966L618,1161L867,1080Z" fill="#498a48" stroke="#498a48" fill-opacity="1" stroke-opacity="1"/><path d="M778,966L867,1080L953,974Z" fill="#418f47" stroke="#418f47" fill-opacity="1" stroke-opacity="1"/><path d="M953,974L867,1080L1090,1089Z" fill="#39863b" stroke="#39863b" fill-opacity="1" stroke-opacity="1"/><path d="M953,974L1090,1089L1101,982Z" fill="#33863b" stroke="#33863b" fill-opacity="1" stroke-opacity="1"/><path d="M1101,982L1090,1089L1235,988Z" fill="#2b7f36" stroke="#2b7f36" fill-opacity="1" stroke-opacity="1"/><path d="M1235,988L1090,1089L1231,1122Z" fill="#277630" stroke="#277630" fill-opacity="1" stroke-opacity="1"/><path d="M1235,988L1231,1122L1416,1135Z" fill="#1e6e2a" stroke="#1e6e2a" fill-opacity="1" stroke-opacity="1"/><path d="M1235,988L1416,1135L1425,983Z" fill="#197129" stroke="#197129" fill-opacity="1" stroke-opacity="1"/><path d="M1425,983L1416,1135L1602,1026Z" fill="#0e6721" stroke="#0e6721" fill-opacity="1" stroke-opacity="1"/><path d="M1602,1026L1416,1135L1610,1101Z" fill="#095e1e" stroke="#095e1e" fill-opacity="1" stroke-opacity="1"/><path d="M1602,1026L1610,1101L1726,990Z" fill="#005f1a" stroke="#005f1a" fill-opacity="1" stroke-opacity="1"/><path d="M1726,990L1610,1101L1696,1154Z" fill="#005717" stroke="#005717" fill-opacity="1" stroke-opacity="1"/><path d="M1726,990L1696,1154L1847,1092Z" fill="#005213" stroke="#005213" fill-opacity="1" stroke-opacity="1"/><path d="M1726,990L1847,1092L1897,920Z" fill="#005a15" stroke="#005a15" fill-opacity="1" stroke-opacity="1"/><path d="M1897,920L1847,1092L1968,1075Z" fill="#00510e" stroke="#00510e" fill-opacity="1" stroke-opacity="1"/><path d="M1897,920L1968,1075L2069,985Z" fill="#00520e" stroke="#00520e" fill-opacity="1" stroke-opacity="1"/><path d="M-119,1175L520,1182L252,1133Z" fill="#6b8b69" stroke="#6b8b69" fill-opacity="1" stroke-opacity="1"/><path d="M-119,1175L252,1133L88,1078Z" fill="#739371" stroke="#739371" fill-opacity="1" stroke-opacity="1"/><path d="M252,1133L520,1182L403,1139Z" fill="#628a5f" stroke="#628a5f" fill-opacity="1" stroke-opacity="1"/><path d="M520,1182L916,1181L618,1161Z" fill="#4e7d4d" stroke="#4e7d4d" fill-opacity="1" stroke-opacity="1"/><path d="M618,1161L916,1181L867,1080Z" fill="#467f45" stroke="#467f45" fill-opacity="1" stroke-opacity="1"/><path d="M867,1080L916,1181L1090,1089Z" fill="#3a7d3b" stroke="#3a7d3b" fill-opacity="1" stroke-opacity="1"/><path d="M916,1181L1696,1154L1416,1135Z" fill="#1a6028" stroke="#1a6028" fill-opacity="1" stroke-opacity="1"/><path d="M916,1181L1416,1135L1231,1122Z" fill="#276b30" stroke="#276b30" fill-opacity="1" stroke-opacity="1"/><path d="M916,1181L1231,1122L1090,1089Z" fill="#307435" stroke="#307435" fill-opacity="1" stroke-opacity="1"/><path d="M1416,1135L1696,1154L1610,1101Z" fill="#06561c" stroke="#06561c" fill-opacity="1" stroke-opacity="1"/><path d="M1696,1154L1968,1075L1847,1092Z" fill="#004a0e" stroke="#004a0e" fill-opacity="1" stroke-opacity="1"/></g></svg>