<svg width="1920" height="957" xmlns="http://www.w3.org/2000/svg"><g><path d="M-83,-133L-103,103L110,-29Z" fill="#fdfeff" stroke="#fdfeff" fill-opacity="1" stroke-opacity="1"/><path d="M-83,-133L110,-29L257,-133Z" fill="#f6fafe" stroke="#f6fafe" fill-opacity="1" stroke-opacity="1"/><path d="M110,-29L-103,103L24,128Z" fill="#fbfdff" stroke="#fbfdff" fill-opacity="1" stroke-opacity="1"/><path d="M110,-29L24,128L215,43Z" fill="#f5f9fd" stroke="#f5f9fd" fill-opacity="1" stroke-opacity="1"/><path d="M110,-29L215,43L257,-133Z" fill="#f1f7fc" stroke="#f1f7fc" fill-opacity="1" stroke-opacity="1"/><path d="M257,-133L215,43L376,-92Z" fill="#edf4fb" stroke="#edf4fb" fill-opacity="1" stroke-opacity="1"/><path d="M257,-133L376,-92L797,-83Z" fill="#e3edf7" stroke="#e3edf7" fill-opacity="1" stroke-opacity="1"/><path d="M257,-133L797,-83L1317,-128Z" fill="#c7e1ef" stroke="#c7e1ef" fill-opacity="1" stroke-opacity="1"/><path d="M376,-92L215,43L423,108Z" fill="#eaf2fa" stroke="#eaf2fa" fill-opacity="1" stroke-opacity="1"/><path d="M376,-92L423,108L504,-52Z" fill="#e5eff8" stroke="#e5eff8" fill-opacity="1" stroke-opacity="1"/><path d="M376,-92L504,-52L797,-83Z" fill="#dceaf5" stroke="#dceaf5" fill-opacity="1" stroke-opacity="1"/><path d="M504,-52L423,108L557,26Z" fill="#e2edf7" stroke="#e2edf7" fill-opacity="1" stroke-opacity="1"/><path d="M504,-52L557,26L654,37Z" fill="#dbeaf5" stroke="#dbeaf5" fill-opacity="1" stroke-opacity="1"/><path d="M504,-52L654,37L734,-59Z" fill="#d6e8f3" stroke="#d6e8f3" fill-opacity="1" stroke-opacity="1"/><path d="M504,-52L734,-59L797,-83Z" fill="#d2e6f1" stroke="#d2e6f1" fill-opacity="1" stroke-opacity="1"/><path d="M734,-59L654,37L873,71Z" fill="#cbe3ef" stroke="#cbe3ef" fill-opacity="1" stroke-opacity="1"/><path d="M734,-59L873,71L797,-83Z" fill="#c6e0ee" stroke="#c6e0ee" fill-opacity="1" stroke-opacity="1"/><path d="M797,-83L873,71L957,-42Z" fill="#bedced" stroke="#bedced" fill-opacity="1" stroke-opacity="1"/><path d="M797,-83L957,-42L1094,-79Z" fill="#b6d7eb" stroke="#b6d7eb" fill-opacity="1" stroke-opacity="1"/><path d="M797,-83L1094,-79L1317,-128Z" fill="#acd0e7" stroke="#acd0e7" fill-opacity="1" stroke-opacity="1"/><path d="M957,-42L873,71L955,40Z" fill="#b9d9eb" stroke="#b9d9eb" fill-opacity="1" stroke-opacity="1"/><path d="M957,-42L955,40L1094,-79Z" fill="#b2d4e9" stroke="#b2d4e9" fill-opacity="1" stroke-opacity="1"/><path d="M1094,-79L955,40L1166,37Z" fill="#acd0e7" stroke="#acd0e7" fill-opacity="1" stroke-opacity="1"/><path d="M1094,-79L1166,37L1317,-128Z" fill="#a1c9e3" stroke="#a1c9e3" fill-opacity="1" stroke-opacity="1"/><path d="M1317,-128L1166,37L1375,62Z" fill="#9bc3e0" stroke="#9bc3e0" fill-opacity="1" stroke-opacity="1"/><path d="M1317,-128L1375,62L1484,-43Z" fill="#94bcdc" stroke="#94bcdc" fill-opacity="1" stroke-opacity="1"/><path d="M1317,-128L1484,-43L1772,-124Z" fill="#8cb1d4" stroke="#8cb1d4" fill-opacity="1" stroke-opacity="1"/><path d="M1484,-43L1375,62L1599,64Z" fill="#8eb4d7" stroke="#8eb4d7" fill-opacity="1" stroke-opacity="1"/><path d="M1484,-43L1599,64L1593,-17Z" fill="#8aadd2" stroke="#8aadd2" fill-opacity="1" stroke-opacity="1"/><path d="M1484,-43L1593,-17L1772,-124Z" fill="#87a8ce" stroke="#87a8ce" fill-opacity="1" stroke-opacity="1"/><path d="M1593,-17L1599,64L1719,57Z" fill="#86a6cd" stroke="#86a6cd" fill-opacity="1" stroke-opacity="1"/><path d="M1593,-17L1719,57L1772,-124Z" fill="#83a1c9" stroke="#83a1c9" fill-opacity="1" stroke-opacity="1"/><path d="M1772,-124L1719,57L1857,-46Z" fill="#8099c3" stroke="#8099c3" fill-opacity="1" stroke-opacity="1"/><path d="M1772,-124L1857,-46L2020,-102Z" fill="#8090bc" stroke="#8090bc" fill-opacity="1" stroke-opacity="1"/><path d="M1857,-46L1719,57L1826,53Z" fill="#8097c1" stroke="#8097c1" fill-opacity="1" stroke-opacity="1"/><path d="M1857,-46L1826,53L1972,60Z" fill="#808fbc" stroke="#808fbc" fill-opacity="1" stroke-opacity="1"/><path d="M1857,-46L1972,60L2020,-102Z" fill="#808ab7" stroke="#808ab7" fill-opacity="1" stroke-opacity="1"/><path d="M2020,-102L1972,60L2021,170Z" fill="#8085b3" stroke="#8085b3" fill-opacity="1" stroke-opacity="1"/><path d="M2020,-102L2021,170L2051,380Z" fill="#7d82b2" stroke="#7d82b2" fill-opacity="1" stroke-opacity="1"/><path d="M-103,103L-126,387L-16,222Z" fill="#f6ffff" stroke="#f6ffff" fill-opacity="1" stroke-opacity="1"/><path d="M-103,103L-16,222L24,128Z" fill="#fafeff" stroke="#fafeff" fill-opacity="1" stroke-opacity="1"/><path d="M24,128L-16,222L120,249Z" fill="#f3fcff" stroke="#f3fcff" fill-opacity="1" stroke-opacity="1"/><path d="M24,128L120,249L215,43Z" fill="#f4f9fd" stroke="#f4f9fd" fill-opacity="1" stroke-opacity="1"/><path d="M215,43L120,249L256,280Z" fill="#ebf7fc" stroke="#ebf7fc" fill-opacity="1" stroke-opacity="1"/><path d="M215,43L256,280L412,175Z" fill="#e9f3fa" stroke="#e9f3fa" fill-opacity="1" stroke-opacity="1"/><path d="M215,43L412,175L423,108Z" fill="#e9f2f9" stroke="#e9f2f9" fill-opacity="1" stroke-opacity="1"/><path d="M423,108L412,175L512,195Z" fill="#e1eef8" stroke="#e1eef8" fill-opacity="1" stroke-opacity="1"/><path d="M423,108L512,195L557,26Z" fill="#e1edf7" stroke="#e1edf7" fill-opacity="1" stroke-opacity="1"/><path d="M557,26L512,195L654,37Z" fill="#dbeaf4" stroke="#dbeaf4" fill-opacity="1" stroke-opacity="1"/><path d="M654,37L512,195L635,240Z" fill="#d6e9f4" stroke="#d6e9f4" fill-opacity="1" stroke-opacity="1"/><path d="M654,37L635,240L789,254Z" fill="#cde6f1" stroke="#cde6f1" fill-opacity="1" stroke-opacity="1"/><path d="M654,37L789,254L873,71Z" fill="#c9e2ef" stroke="#c9e2ef" fill-opacity="1" stroke-opacity="1"/><path d="M873,71L789,254L923,166Z" fill="#bcdced" stroke="#bcdced" fill-opacity="1" stroke-opacity="1"/><path d="M873,71L923,166L955,40Z" fill="#bad9ec" stroke="#bad9ec" fill-opacity="1" stroke-opacity="1"/><path d="M955,40L923,166L1166,37Z" fill="#b1d4e9" stroke="#b1d4e9" fill-opacity="1" stroke-opacity="1"/><path d="M1166,37L923,166L1218,128Z" fill="#a9cee6" stroke="#a9cee6" fill-opacity="1" stroke-opacity="1"/><path d="M1166,37L1218,128L1375,62Z" fill="#9dc5e1" stroke="#9dc5e1" fill-opacity="1" stroke-opacity="1"/><path d="M1218,128L923,166L1161,282Z" fill="#a4cfe6" stroke="#a4cfe6" fill-opacity="1" stroke-opacity="1"/><path d="M1218,128L1161,282L1263,275Z" fill="#97c8e2" stroke="#97c8e2" fill-opacity="1" stroke-opacity="1"/><path d="M1218,128L1263,275L1375,62Z" fill="#98c3e0" stroke="#98c3e0" fill-opacity="1" stroke-opacity="1"/><path d="M1375,62L1263,275L1461,267Z" fill="#8fbddd" stroke="#8fbddd" fill-opacity="1" stroke-opacity="1"/><path d="M1375,62L1461,267L1599,64Z" fill="#8db5d8" stroke="#8db5d8" fill-opacity="1" stroke-opacity="1"/><path d="M1599,64L1461,267L1527,273Z" fill="#85b0d4" stroke="#85b0d4" fill-opacity="1" stroke-opacity="1"/><path d="M1599,64L1527,273L1696,166Z" fill="#84a9cf" stroke="#84a9cf" fill-opacity="1" stroke-opacity="1"/><path d="M1599,64L1696,166L1719,57Z" fill="#84a3ca" stroke="#84a3ca" fill-opacity="1" stroke-opacity="1"/><path d="M1719,57L1696,166L1826,53Z" fill="#809cc5" stroke="#809cc5" fill-opacity="1" stroke-opacity="1"/><path d="M1826,53L1696,166L1924,209Z" fill="#7e96c0" stroke="#7e96c0" fill-opacity="1" stroke-opacity="1"/><path d="M1826,53L1924,209L1972,60Z" fill="#808dba" stroke="#808dba" fill-opacity="1" stroke-opacity="1"/><path d="M1972,60L1924,209L2021,170Z" fill="#7e87b6" stroke="#7e87b6" fill-opacity="1" stroke-opacity="1"/><path d="M-16,222L-126,387L37,333Z" fill="#e5faff" stroke="#e5faff" fill-opacity="1" stroke-opacity="1"/><path d="M-16,222L37,333L120,249Z" fill="#e9fafe" stroke="#e9fafe" fill-opacity="1" stroke-opacity="1"/><path d="M120,249L37,333L217,322Z" fill="#dff6fd" stroke="#dff6fd" fill-opacity="1" stroke-opacity="1"/><path d="M120,249L217,322L256,280Z" fill="#def4fc" stroke="#def4fc" fill-opacity="1" stroke-opacity="1"/><path d="M256,280L217,322L356,327Z" fill="#d5f0fb" stroke="#d5f0fb" fill-opacity="1" stroke-opacity="1"/><path d="M256,280L356,327L412,175Z" fill="#dcf0fa" stroke="#dcf0fa" fill-opacity="1" stroke-opacity="1"/><path d="M412,175L356,327L512,195Z" fill="#dceff8" stroke="#dceff8" fill-opacity="1" stroke-opacity="1"/><path d="M512,195L356,327L541,333Z" fill="#d1ebf7" stroke="#d1ebf7" fill-opacity="1" stroke-opacity="1"/><path d="M512,195L541,333L635,240Z" fill="#cfe9f5" stroke="#cfe9f5" fill-opacity="1" stroke-opacity="1"/><path d="M635,240L541,333L669,318Z" fill="#c3e5f3" stroke="#c3e5f3" fill-opacity="1" stroke-opacity="1"/><path d="M635,240L669,318L789,254Z" fill="#c1e4f1" stroke="#c1e4f1" fill-opacity="1" stroke-opacity="1"/><path d="M789,254L669,318L849,415Z" fill="#aedcef" stroke="#aedcef" fill-opacity="1" stroke-opacity="1"/><path d="M789,254L849,415L983,402Z" fill="#9dd5ed" stroke="#9dd5ed" fill-opacity="1" stroke-opacity="1"/><path d="M789,254L983,402L923,166Z" fill="#abd8ec" stroke="#abd8ec" fill-opacity="1" stroke-opacity="1"/><path d="M923,166L983,402L1161,282Z" fill="#9dd1e9" stroke="#9dd1e9" fill-opacity="1" stroke-opacity="1"/><path d="M1161,282L983,402L1167,343Z" fill="#8bc8e6" stroke="#8bc8e6" fill-opacity="1" stroke-opacity="1"/><path d="M1161,282L1167,343L1263,275Z" fill="#8cc5e3" stroke="#8cc5e3" fill-opacity="1" stroke-opacity="1"/><path d="M1263,275L1167,343L1297,385Z" fill="#81c0e1" stroke="#81c0e1" fill-opacity="1" stroke-opacity="1"/><path d="M1263,275L1297,385L1366,368Z" fill="#7bbbdf" stroke="#7bbbdf" fill-opacity="1" stroke-opacity="1"/><path d="M1263,275L1366,368L1461,267Z" fill="#7fbadd" stroke="#7fbadd" fill-opacity="1" stroke-opacity="1"/><path d="M1461,267L1366,368L1539,350Z" fill="#74b2d9" stroke="#74b2d9" fill-opacity="1" stroke-opacity="1"/><path d="M1461,267L1539,350L1527,273Z" fill="#78aed6" stroke="#78aed6" fill-opacity="1" stroke-opacity="1"/><path d="M1527,273L1539,350L1748,330Z" fill="#6fa5cf" stroke="#6fa5cf" fill-opacity="1" stroke-opacity="1"/><path d="M1527,273L1748,330L1696,166Z" fill="#78a3cb" stroke="#78a3cb" fill-opacity="1" stroke-opacity="1"/><path d="M1696,166L1748,330L1924,209Z" fill="#7798c2" stroke="#7798c2" fill-opacity="1" stroke-opacity="1"/><path d="M1924,209L1748,330L1850,387Z" fill="#6890bf" stroke="#6890bf" fill-opacity="1" stroke-opacity="1"/><path d="M1924,209L1850,387L2051,380Z" fill="#6585b8" stroke="#6585b8" fill-opacity="1" stroke-opacity="1"/><path d="M1924,209L2051,380L2021,170Z" fill="#7384b4" stroke="#7384b4" fill-opacity="1" stroke-opacity="1"/><path d="M-126,387L-102,1177L-79,707Z" fill="#93bbe5" stroke="#93bbe5" fill-opacity="1" stroke-opacity="1"/><path d="M-126,387L-79,707L-89,504Z" fill="#b4e0fb" stroke="#b4e0fb" fill-opacity="1" stroke-opacity="1"/><path d="M-126,387L-89,504L37,333Z" fill="#d0f1ff" stroke="#d0f1ff" fill-opacity="1" stroke-opacity="1"/><path d="M37,333L-89,504L89,573Z" fill="#bde6ff" stroke="#bde6ff" fill-opacity="1" stroke-opacity="1"/><path d="M37,333L89,573L180,559Z" fill="#b4e0fd" stroke="#b4e0fd" fill-opacity="1" stroke-opacity="1"/><path d="M37,333L180,559L217,322Z" fill="#c7ebfd" stroke="#c7ebfd" fill-opacity="1" stroke-opacity="1"/><path d="M217,322L180,559L356,327Z" fill="#c2e8fb" stroke="#c2e8fb" fill-opacity="1" stroke-opacity="1"/><path d="M356,327L180,559L422,525Z" fill="#addcfa" stroke="#addcfa" fill-opacity="1" stroke-opacity="1"/><path d="M356,327L422,525L541,333Z" fill="#bae3f8" stroke="#bae3f8" fill-opacity="1" stroke-opacity="1"/><path d="M541,333L422,525L492,527Z" fill="#a7d8f7" stroke="#a7d8f7" fill-opacity="1" stroke-opacity="1"/><path d="M541,333L492,527L735,527Z" fill="#9ed4f4" stroke="#9ed4f4" fill-opacity="1" stroke-opacity="1"/><path d="M541,333L735,527L669,318Z" fill="#abdbf2" stroke="#abdbf2" fill-opacity="1" stroke-opacity="1"/><path d="M669,318L735,527L849,415Z" fill="#9ad3f0" stroke="#9ad3f0" fill-opacity="1" stroke-opacity="1"/><path d="M849,415L735,527L860,569Z" fill="#80c4ec" stroke="#80c4ec" fill-opacity="1" stroke-opacity="1"/><path d="M849,415L860,569L950,527Z" fill="#78c0ea" stroke="#78c0ea" fill-opacity="1" stroke-opacity="1"/><path d="M849,415L950,527L983,402Z" fill="#81c5eb" stroke="#81c5eb" fill-opacity="1" stroke-opacity="1"/><path d="M983,402L950,527L1086,547Z" fill="#6ebae8" stroke="#6ebae8" fill-opacity="1" stroke-opacity="1"/><path d="M983,402L1086,547L1167,343Z" fill="#77bfe7" stroke="#77bfe7" fill-opacity="1" stroke-opacity="1"/><path d="M1167,343L1086,547L1271,576Z" fill="#61b1e3" stroke="#61b1e3" fill-opacity="1" stroke-opacity="1"/><path d="M1167,343L1271,576L1297,385Z" fill="#69b4e1" stroke="#69b4e1" fill-opacity="1" stroke-opacity="1"/><path d="M1297,385L1271,576L1370,553Z" fill="#54a6dd" stroke="#54a6dd" fill-opacity="1" stroke-opacity="1"/><path d="M1297,385L1370,553L1366,368Z" fill="#62adde" stroke="#62adde" fill-opacity="1" stroke-opacity="1"/><path d="M1366,368L1370,553L1539,350Z" fill="#5fa9db" stroke="#5fa9db" fill-opacity="1" stroke-opacity="1"/><path d="M1539,350L1370,553L1585,566Z" fill="#4b99d5" stroke="#4b99d5" fill-opacity="1" stroke-opacity="1"/><path d="M1539,350L1585,566L1760,471Z" fill="#4a92cd" stroke="#4a92cd" fill-opacity="1" stroke-opacity="1"/><path d="M1539,350L1760,471L1748,330Z" fill="#5c98ca" stroke="#5c98ca" fill-opacity="1" stroke-opacity="1"/><path d="M1748,330L1760,471L1850,387Z" fill="#558cc2" stroke="#558cc2" fill-opacity="1" stroke-opacity="1"/><path d="M1850,387L1760,471L1860,526Z" fill="#4480c0" stroke="#4480c0" fill-opacity="1" stroke-opacity="1"/><path d="M1850,387L1860,526L2051,380Z" fill="#4c7bb9" stroke="#4c7bb9" fill-opacity="1" stroke-opacity="1"/><path d="M2051,380L1860,526L2053,534Z" fill="#3f6eb5" stroke="#3f6eb5" fill-opacity="1" stroke-opacity="1"/><path d="M-89,504L-79,707L22,697Z" fill="#9fd0f3" stroke="#9fd0f3" fill-opacity="1" stroke-opacity="1"/><path d="M-89,504L22,697L89,573Z" fill="#a4d6f6" stroke="#a4d6f6" fill-opacity="1" stroke-opacity="1"/><path d="M89,573L22,697L277,653Z" fill="#95c9f0" stroke="#95c9f0" fill-opacity="1" stroke-opacity="1"/><path d="M89,573L277,653L180,559Z" fill="#9acff3" stroke="#9acff3" fill-opacity="1" stroke-opacity="1"/><path d="M180,559L277,653L422,525Z" fill="#98cdf2" stroke="#98cdf2" fill-opacity="1" stroke-opacity="1"/><path d="M422,525L277,653L335,680Z" fill="#8ec6ee" stroke="#8ec6ee" fill-opacity="1" stroke-opacity="1"/><path d="M422,525L335,680L467,716Z" fill="#87c0eb" stroke="#87c0eb" fill-opacity="1" stroke-opacity="1"/><path d="M422,525L467,716L492,527Z" fill="#8dc6ef" stroke="#8dc6ef" fill-opacity="1" stroke-opacity="1"/><path d="M492,527L467,716L721,725Z" fill="#7ab8e6" stroke="#7ab8e6" fill-opacity="1" stroke-opacity="1"/><path d="M492,527L721,725L735,527Z" fill="#7dbfe9" stroke="#7dbfe9" fill-opacity="1" stroke-opacity="1"/><path d="M735,527L721,725L862,616Z" fill="#6db5e4" stroke="#6db5e4" fill-opacity="1" stroke-opacity="1"/><path d="M735,527L862,616L860,569Z" fill="#71bae6" stroke="#71bae6" fill-opacity="1" stroke-opacity="1"/><path d="M860,569L862,616L950,527Z" fill="#6ab6e5" stroke="#6ab6e5" fill-opacity="1" stroke-opacity="1"/><path d="M950,527L862,616L922,658Z" fill="#61b1e2" stroke="#61b1e2" fill-opacity="1" stroke-opacity="1"/><path d="M950,527L922,658L1086,547Z" fill="#5fb0e2" stroke="#5fb0e2" fill-opacity="1" stroke-opacity="1"/><path d="M1086,547L922,658L1127,682Z" fill="#50a4dc" stroke="#50a4dc" fill-opacity="1" stroke-opacity="1"/><path d="M1086,547L1127,682L1243,640Z" fill="#489fd9" stroke="#489fd9" fill-opacity="1" stroke-opacity="1"/><path d="M1086,547L1243,640L1271,576Z" fill="#4aa2da" stroke="#4aa2da" fill-opacity="1" stroke-opacity="1"/><path d="M1271,576L1243,640L1382,673Z" fill="#3c94d3" stroke="#3c94d3" fill-opacity="1" stroke-opacity="1"/><path d="M1271,576L1382,673L1370,553Z" fill="#3e96d4" stroke="#3e96d4" fill-opacity="1" stroke-opacity="1"/><path d="M1370,553L1382,673L1585,566Z" fill="#378fd0" stroke="#378fd0" fill-opacity="1" stroke-opacity="1"/><path d="M1585,566L1382,673L1543,728Z" fill="#2b80c7" stroke="#2b80c7" fill-opacity="1" stroke-opacity="1"/><path d="M1585,566L1543,728L1727,641Z" fill="#2778c0" stroke="#2778c0" fill-opacity="1" stroke-opacity="1"/><path d="M1585,566L1727,641L1760,471Z" fill="#337ec3" stroke="#337ec3" fill-opacity="1" stroke-opacity="1"/><path d="M1760,471L1727,641L1860,526Z" fill="#3277bd" stroke="#3277bd" fill-opacity="1" stroke-opacity="1"/><path d="M1860,526L1727,641L1833,703Z" fill="#236ab6" stroke="#236ab6" fill-opacity="1" stroke-opacity="1"/><path d="M1860,526L1833,703L2005,674Z" fill="#2160ae" stroke="#2160ae" fill-opacity="1" stroke-opacity="1"/><path d="M1860,526L2005,674L2053,534Z" fill="#2b62ae" stroke="#2b62ae" fill-opacity="1" stroke-opacity="1"/><path d="M2053,534L2005,674L2001,782Z" fill="#1d50a3" stroke="#1d50a3" fill-opacity="1" stroke-opacity="1"/><path d="M2053,534L2001,782L2019,1029Z" fill="#133994" stroke="#133994" fill-opacity="1" stroke-opacity="1"/><path d="M-79,707L-102,1177L-57,1016Z" fill="#8f8cc2" stroke="#8f8cc2" fill-opacity="1" stroke-opacity="1"/><path d="M-79,707L-57,1016L-34,880Z" fill="#90a2d3" stroke="#90a2d3" fill-opacity="1" stroke-opacity="1"/><path d="M-79,707L-34,880L22,697Z" fill="#90b9e4" stroke="#90b9e4" fill-opacity="1" stroke-opacity="1"/><path d="M22,697L-34,880L130,883Z" fill="#8ca9da" stroke="#8ca9da" fill-opacity="1" stroke-opacity="1"/><path d="M22,697L130,883L234,833Z" fill="#87aadb" stroke="#87aadb" fill-opacity="1" stroke-opacity="1"/><path d="M22,697L234,833L277,653Z" fill="#86b9e7" stroke="#86b9e7" fill-opacity="1" stroke-opacity="1"/><path d="M277,653L234,833L335,680Z" fill="#81b7e7" stroke="#81b7e7" fill-opacity="1" stroke-opacity="1"/><path d="M335,680L234,833L324,868Z" fill="#7ea6da" stroke="#7ea6da" fill-opacity="1" stroke-opacity="1"/><path d="M335,680L324,868L467,716Z" fill="#7baddf" stroke="#7baddf" fill-opacity="1" stroke-opacity="1"/><path d="M467,716L324,868L434,919Z" fill="#789ad1" stroke="#789ad1" fill-opacity="1" stroke-opacity="1"/><path d="M467,716L434,919L558,868Z" fill="#7497d0" stroke="#7497d0" fill-opacity="1" stroke-opacity="1"/><path d="M467,716L558,868L677,784Z" fill="#6e9ed5" stroke="#6e9ed5" fill-opacity="1" stroke-opacity="1"/><path d="M467,716L677,784L721,725Z" fill="#6aa7dc" stroke="#6aa7dc" fill-opacity="1" stroke-opacity="1"/><path d="M721,725L677,784L838,813Z" fill="#5f9bd3" stroke="#5f9bd3" fill-opacity="1" stroke-opacity="1"/><path d="M721,725L838,813L862,616Z" fill="#5aa4db" stroke="#5aa4db" fill-opacity="1" stroke-opacity="1"/><path d="M862,616L838,813L922,658Z" fill="#56a3db" stroke="#56a3db" fill-opacity="1" stroke-opacity="1"/><path d="M922,658L838,813L955,765Z" fill="#4f98d4" stroke="#4f98d4" fill-opacity="1" stroke-opacity="1"/><path d="M922,658L955,765L1127,682Z" fill="#489bd7" stroke="#489bd7" fill-opacity="1" stroke-opacity="1"/><path d="M1127,682L955,765L1122,868Z" fill="#3f88cb" stroke="#3f88cb" fill-opacity="1" stroke-opacity="1"/><path d="M1127,682L1122,868L1285,795Z" fill="#3680c5" stroke="#3680c5" fill-opacity="1" stroke-opacity="1"/><path d="M1127,682L1285,795L1243,640Z" fill="#358dd0" stroke="#358dd0" fill-opacity="1" stroke-opacity="1"/><path d="M1243,640L1285,795L1382,673Z" fill="#3088cd" stroke="#3088cd" fill-opacity="1" stroke-opacity="1"/><path d="M1382,673L1285,795L1480,769Z" fill="#287ac4" stroke="#287ac4" fill-opacity="1" stroke-opacity="1"/><path d="M1382,673L1480,769L1543,728Z" fill="#2379c4" stroke="#2379c4" fill-opacity="1" stroke-opacity="1"/><path d="M1543,728L1480,769L1574,876Z" fill="#1e64b4" stroke="#1e64b4" fill-opacity="1" stroke-opacity="1"/><path d="M1543,728L1574,876L1706,860Z" fill="#1a56aa" stroke="#1a56aa" fill-opacity="1" stroke-opacity="1"/><path d="M1543,728L1706,860L1727,641Z" fill="#1863b4" stroke="#1863b4" fill-opacity="1" stroke-opacity="1"/><path d="M1727,641L1706,860L1833,703Z" fill="#135cae" stroke="#135cae" fill-opacity="1" stroke-opacity="1"/><path d="M1833,703L1706,860L1872,816Z" fill="#124aa1" stroke="#124aa1" fill-opacity="1" stroke-opacity="1"/><path d="M1833,703L1872,816L2001,782Z" fill="#13479f" stroke="#13479f" fill-opacity="1" stroke-opacity="1"/><path d="M1833,703L2001,782L2005,674Z" fill="#144da3" stroke="#144da3" fill-opacity="1" stroke-opacity="1"/><path d="M-34,880L-57,1016L77,1031Z" fill="#8b88c1" stroke="#8b88c1" fill-opacity="1" stroke-opacity="1"/><path d="M-34,880L77,1031L130,883Z" fill="#8990c7" stroke="#8990c7" fill-opacity="1" stroke-opacity="1"/><path d="M130,883L77,1031L271,946Z" fill="#8388c2" stroke="#8388c2" fill-opacity="1" stroke-opacity="1"/><path d="M130,883L271,946L234,833Z" fill="#8195cc" stroke="#8195cc" fill-opacity="1" stroke-opacity="1"/><path d="M234,833L271,946L324,868Z" fill="#7e94cc" stroke="#7e94cc" fill-opacity="1" stroke-opacity="1"/><path d="M324,868L271,946L434,919Z" fill="#7b8bc6" stroke="#7b8bc6" fill-opacity="1" stroke-opacity="1"/><path d="M558,868L434,919L573,931Z" fill="#7086c3" stroke="#7086c3" fill-opacity="1" stroke-opacity="1"/><path d="M558,868L573,931L689,955Z" fill="#6980bf" stroke="#6980bf" fill-opacity="1" stroke-opacity="1"/><path d="M558,868L689,955L677,784Z" fill="#678ac6" stroke="#678ac6" fill-opacity="1" stroke-opacity="1"/><path d="M677,784L689,955L829,920Z" fill="#5f83c0" stroke="#5f83c0" fill-opacity="1" stroke-opacity="1"/><path d="M677,784L829,920L838,813Z" fill="#5a8ac7" stroke="#5a8ac7" fill-opacity="1" stroke-opacity="1"/><path d="M838,813L829,920L980,962Z" fill="#4f77bb" stroke="#4f77bb" fill-opacity="1" stroke-opacity="1"/><path d="M838,813L980,962L955,765Z" fill="#4b80c3" stroke="#4b80c3" fill-opacity="1" stroke-opacity="1"/><path d="M955,765L980,962L1122,868Z" fill="#4277bd" stroke="#4277bd" fill-opacity="1" stroke-opacity="1"/><path d="M1122,868L980,962L1074,954Z" fill="#3d66b1" stroke="#3d66b1" fill-opacity="1" stroke-opacity="1"/><path d="M1122,868L1074,954L1305,992Z" fill="#345eab" stroke="#345eab" fill-opacity="1" stroke-opacity="1"/><path d="M1122,868L1305,992L1285,795Z" fill="#2f65b2" stroke="#2f65b2" fill-opacity="1" stroke-opacity="1"/><path d="M1285,795L1305,992L1480,769Z" fill="#2864b3" stroke="#2864b3" fill-opacity="1" stroke-opacity="1"/><path d="M1480,769L1305,992L1437,1031Z" fill="#234fa4" stroke="#234fa4" fill-opacity="1" stroke-opacity="1"/><path d="M1480,769L1437,1031L1564,951Z" fill="#1e4ba2" stroke="#1e4ba2" fill-opacity="1" stroke-opacity="1"/><path d="M1480,769L1564,951L1574,876Z" fill="#1d53a7" stroke="#1d53a7" fill-opacity="1" stroke-opacity="1"/><path d="M1574,876L1564,951L1688,937Z" fill="#184099" stroke="#184099" fill-opacity="1" stroke-opacity="1"/><path d="M1574,876L1688,937L1706,860Z" fill="#16429b" stroke="#16429b" fill-opacity="1" stroke-opacity="1"/><path d="M1706,860L1688,937L1872,816Z" fill="#113d98" stroke="#113d98" fill-opacity="1" stroke-opacity="1"/><path d="M1872,816L1688,937L1931,964Z" fill="#112f8c" stroke="#112f8c" fill-opacity="1" stroke-opacity="1"/><path d="M1872,816L1931,964L2001,782Z" fill="#11318e" stroke="#11318e" fill-opacity="1" stroke-opacity="1"/><path d="M2001,782L1931,964L2019,1029Z" fill="#101c7f" stroke="#101c7f" fill-opacity="1" stroke-opacity="1"/><path d="M-57,1016L-102,1177L104,1095Z" fill="#8a7ead" stroke="#8a7ead" fill-opacity="1" stroke-opacity="1"/><path d="M-57,1016L104,1095L77,1031Z" fill="#887cb4" stroke="#887cb4" fill-opacity="1" stroke-opacity="1"/><path d="M77,1031L104,1095L271,946Z" fill="#8279b6" stroke="#8279b6" fill-opacity="1" stroke-opacity="1"/><path d="M271,946L104,1095L266,1160Z" fill="#7e77ae" stroke="#7e77ae" fill-opacity="1" stroke-opacity="1"/><path d="M271,946L266,1160L391,1183Z" fill="#7973a7" stroke="#7973a7" fill-opacity="1" stroke-opacity="1"/><path d="M271,946L391,1183L434,919Z" fill="#7773b4" stroke="#7773b4" fill-opacity="1" stroke-opacity="1"/><path d="M434,919L391,1183L570,1152Z" fill="#726ea7" stroke="#726ea7" fill-opacity="1" stroke-opacity="1"/><path d="M434,919L570,1152L573,931Z" fill="#6e71b3" stroke="#6e71b3" fill-opacity="1" stroke-opacity="1"/><path d="M573,931L570,1152L659,1098Z" fill="#6769a7" stroke="#6769a7" fill-opacity="1" stroke-opacity="1"/><path d="M573,931L659,1098L689,955Z" fill="#656eb1" stroke="#656eb1" fill-opacity="1" stroke-opacity="1"/><path d="M689,955L659,1098L829,920Z" fill="#5e6caf" stroke="#5e6caf" fill-opacity="1" stroke-opacity="1"/><path d="M829,920L659,1098L877,1159Z" fill="#5661a2" stroke="#5661a2" fill-opacity="1" stroke-opacity="1"/><path d="M829,920L877,1159L944,1087Z" fill="#4c5ca1" stroke="#4c5ca1" fill-opacity="1" stroke-opacity="1"/><path d="M829,920L944,1087L980,962Z" fill="#4961ab" stroke="#4961ab" fill-opacity="1" stroke-opacity="1"/><path d="M980,962L944,1087L1074,954Z" fill="#415aa6" stroke="#415aa6" fill-opacity="1" stroke-opacity="1"/><path d="M1074,954L944,1087L1170,1182Z" fill="#3a5198" stroke="#3a5198" fill-opacity="1" stroke-opacity="1"/><path d="M1074,954L1170,1182L1305,992Z" fill="#314a99" stroke="#314a99" fill-opacity="1" stroke-opacity="1"/><path d="M1305,992L1170,1182L1312,1124Z" fill="#2a458d" stroke="#2a458d" fill-opacity="1" stroke-opacity="1"/><path d="M1305,992L1312,1124L1397,1104Z" fill="#25408f" stroke="#25408f" fill-opacity="1" stroke-opacity="1"/><path d="M1305,992L1397,1104L1437,1031Z" fill="#233d92" stroke="#233d92" fill-opacity="1" stroke-opacity="1"/><path d="M1437,1031L1397,1104L1520,1184Z" fill="#1d3885" stroke="#1d3885" fill-opacity="1" stroke-opacity="1"/><path d="M1437,1031L1520,1184L1564,951Z" fill="#1b338a" stroke="#1b338a" fill-opacity="1" stroke-opacity="1"/><path d="M1564,951L1520,1184L1730,1088Z" fill="#162a80" stroke="#162a80" fill-opacity="1" stroke-opacity="1"/><path d="M1564,951L1730,1088L1688,937Z" fill="#142b8a" stroke="#142b8a" fill-opacity="1" stroke-opacity="1"/><path d="M1688,937L1730,1088L1931,964Z" fill="#0f1f81" stroke="#0f1f81" fill-opacity="1" stroke-opacity="1"/><path d="M1931,964L1730,1088L1920,1142Z" fill="#0e1270" stroke="#0e1270" fill-opacity="1" stroke-opacity="1"/><path d="M1931,964L1920,1142L1981,1086Z" fill="#0e0b6a" stroke="#0e0b6a" fill-opacity="1" stroke-opacity="1"/><path d="M1931,964L1981,1086L2019,1029Z" fill="#0f086e" stroke="#0f086e" fill-opacity="1" stroke-opacity="1"/><path d="M-102,1177L391,1183L266,1160Z" fill="#7e789d" stroke="#7e789d" fill-opacity="1" stroke-opacity="1"/><path d="M-102,1177L266,1160L104,1095Z" fill="#847ba3" stroke="#847ba3" fill-opacity="1" stroke-opacity="1"/><path d="M391,1183L1520,1184L1170,1182Z" fill="#3c5387" stroke="#3c5387" fill-opacity="1" stroke-opacity="1"/><path d="M391,1183L1170,1182L877,1159Z" fill="#51608e" stroke="#51608e" fill-opacity="1" stroke-opacity="1"/><path d="M391,1183L877,1159L570,1152Z" fill="#646995" stroke="#646995" fill-opacity="1" stroke-opacity="1"/><path d="M570,1152L877,1159L659,1098Z" fill="#5d6697" stroke="#5d6697" fill-opacity="1" stroke-opacity="1"/><path d="M877,1159L1170,1182L944,1087Z" fill="#3f558f" stroke="#3f558f" fill-opacity="1" stroke-opacity="1"/><path d="M1170,1182L1520,1184L1312,1124Z" fill="#244080" stroke="#244080" fill-opacity="1" stroke-opacity="1"/><path d="M1312,1124L1520,1184L1397,1104Z" fill="#1f3b82" stroke="#1f3b82" fill-opacity="1" stroke-opacity="1"/><path d="M1520,1184L1920,1142L1730,1088Z" fill="#0e1f6d" stroke="#0e1f6d" fill-opacity="1" stroke-opacity="1"/></g></svg>