<svg width="1920" height="982" xmlns="http://www.w3.org/2000/svg"><g><path d="M-104,-155L-121,351L-75,52Z" fill="#f9f9fe" stroke="#f9f9fe" fill-opacity="1" stroke-opacity="1"/><path d="M-104,-155L-75,52L153,-75Z" fill="#fbf8fb" stroke="#fbf8fb" fill-opacity="1" stroke-opacity="1"/><path d="M-104,-155L153,-75L308,-144Z" fill="#f2f1f8" stroke="#f2f1f8" fill-opacity="1" stroke-opacity="1"/><path d="M-104,-155L308,-144L743,-149Z" fill="#e3e8f2" stroke="#e3e8f2" fill-opacity="1" stroke-opacity="1"/><path d="M-104,-155L743,-149L1819,-147Z" fill="#aed3e4" stroke="#aed3e4" fill-opacity="1" stroke-opacity="1"/><path d="M153,-75L-75,52L44,75Z" fill="#f6f5fa" stroke="#f6f5fa" fill-opacity="1" stroke-opacity="1"/><path d="M153,-75L44,75L274,139Z" fill="#ecedf7" stroke="#ecedf7" fill-opacity="1" stroke-opacity="1"/><path d="M153,-75L274,139L308,-144Z" fill="#e9ebf4" stroke="#e9ebf4" fill-opacity="1" stroke-opacity="1"/><path d="M308,-144L274,139L519,138Z" fill="#dce4f1" stroke="#dce4f1" fill-opacity="1" stroke-opacity="1"/><path d="M308,-144L519,138L519,-134Z" fill="#d7e2ef" stroke="#d7e2ef" fill-opacity="1" stroke-opacity="1"/><path d="M308,-144L519,-134L743,-149Z" fill="#cfdeed" stroke="#cfdeed" fill-opacity="1" stroke-opacity="1"/><path d="M519,-134L519,138L767,65Z" fill="#c4daeb" stroke="#c4daeb" fill-opacity="1" stroke-opacity="1"/><path d="M519,-134L767,65L743,-149Z" fill="#bed8e9" stroke="#bed8e9" fill-opacity="1" stroke-opacity="1"/><path d="M743,-149L767,65L916,-40Z" fill="#afd3e4" stroke="#afd3e4" fill-opacity="1" stroke-opacity="1"/><path d="M743,-149L916,-40L1144,-56Z" fill="#a3cfdc" stroke="#a3cfdc" fill-opacity="1" stroke-opacity="1"/><path d="M743,-149L1144,-56L1323,-139Z" fill="#96cad2" stroke="#96cad2" fill-opacity="1" stroke-opacity="1"/><path d="M743,-149L1323,-139L1819,-147Z" fill="#89c1c0" stroke="#89c1c0" fill-opacity="1" stroke-opacity="1"/><path d="M916,-40L767,65L963,164Z" fill="#a3cedf" stroke="#a3cedf" fill-opacity="1" stroke-opacity="1"/><path d="M916,-40L963,164L1144,-56Z" fill="#9acbd6" stroke="#9acbd6" fill-opacity="1" stroke-opacity="1"/><path d="M1144,-56L963,164L1212,102Z" fill="#8dc7cf" stroke="#8dc7cf" fill-opacity="1" stroke-opacity="1"/><path d="M1144,-56L1212,102L1323,-139Z" fill="#8bc4c6" stroke="#8bc4c6" fill-opacity="1" stroke-opacity="1"/><path d="M1323,-139L1212,102L1397,163Z" fill="#85bfbf" stroke="#85bfbf" fill-opacity="1" stroke-opacity="1"/><path d="M1323,-139L1397,163L1571,-123Z" fill="#84bbb5" stroke="#84bbb5" fill-opacity="1" stroke-opacity="1"/><path d="M1323,-139L1571,-123L1819,-147Z" fill="#80b4a9" stroke="#80b4a9" fill-opacity="1" stroke-opacity="1"/><path d="M1571,-123L1397,163L1584,163Z" fill="#7cb4ae" stroke="#7cb4ae" fill-opacity="1" stroke-opacity="1"/><path d="M1571,-123L1584,163L1836,44Z" fill="#7eafa2" stroke="#7eafa2" fill-opacity="1" stroke-opacity="1"/><path d="M1571,-123L1836,44L1819,-147Z" fill="#80ac9b" stroke="#80ac9b" fill-opacity="1" stroke-opacity="1"/><path d="M1819,-147L1836,44L1935,-85Z" fill="#80a691" stroke="#80a691" fill-opacity="1" stroke-opacity="1"/><path d="M1819,-147L1935,-85L2203,-63Z" fill="#80a187" stroke="#80a187" fill-opacity="1" stroke-opacity="1"/><path d="M1935,-85L1836,44L2025,92Z" fill="#7ea38b" stroke="#7ea38b" fill-opacity="1" stroke-opacity="1"/><path d="M1935,-85L2025,92L2203,-63Z" fill="#809d81" stroke="#809d81" fill-opacity="1" stroke-opacity="1"/><path d="M2203,-63L2025,92L2204,102Z" fill="#7c9880" stroke="#7c9880" fill-opacity="1" stroke-opacity="1"/><path d="M2203,-63L2204,102L2233,767Z" fill="#5e877e" stroke="#5e877e" fill-opacity="1" stroke-opacity="1"/><path d="M-75,52L-121,351L44,75Z" fill="#f3f4fd" stroke="#f3f4fd" fill-opacity="1" stroke-opacity="1"/><path d="M44,75L-121,351L148,319Z" fill="#dceafa" stroke="#dceafa" fill-opacity="1" stroke-opacity="1"/><path d="M44,75L148,319L274,139Z" fill="#e2e9f7" stroke="#e2e9f7" fill-opacity="1" stroke-opacity="1"/><path d="M274,139L148,319L361,347Z" fill="#c6dcf2" stroke="#c6dcf2" fill-opacity="1" stroke-opacity="1"/><path d="M274,139L361,347L519,138Z" fill="#ccdcf0" stroke="#ccdcf0" fill-opacity="1" stroke-opacity="1"/><path d="M519,138L361,347L566,261Z" fill="#b7d4ed" stroke="#b7d4ed" fill-opacity="1" stroke-opacity="1"/><path d="M519,138L566,261L767,65Z" fill="#b8d5eb" stroke="#b8d5eb" fill-opacity="1" stroke-opacity="1"/><path d="M767,65L566,261L738,305Z" fill="#a9cee9" stroke="#a9cee9" fill-opacity="1" stroke-opacity="1"/><path d="M767,65L738,305L912,290Z" fill="#9bc9e4" stroke="#9bc9e4" fill-opacity="1" stroke-opacity="1"/><path d="M767,65L912,290L963,164Z" fill="#9bcadf" stroke="#9bcadf" fill-opacity="1" stroke-opacity="1"/><path d="M963,164L912,290L1162,366Z" fill="#78bdd5" stroke="#78bdd5" fill-opacity="1" stroke-opacity="1"/><path d="M963,164L1162,366L1212,102Z" fill="#7fc0cf" stroke="#7fc0cf" fill-opacity="1" stroke-opacity="1"/><path d="M1212,102L1162,366L1398,288Z" fill="#6db6c2" stroke="#6db6c2" fill-opacity="1" stroke-opacity="1"/><path d="M1212,102L1398,288L1397,163Z" fill="#79b8bd" stroke="#79b8bd" fill-opacity="1" stroke-opacity="1"/><path d="M1397,163L1398,288L1524,330Z" fill="#64acb3" stroke="#64acb3" fill-opacity="1" stroke-opacity="1"/><path d="M1397,163L1524,330L1584,163Z" fill="#6caeaf" stroke="#6caeaf" fill-opacity="1" stroke-opacity="1"/><path d="M1584,163L1524,330L1747,361Z" fill="#5aa1a3" stroke="#5aa1a3" fill-opacity="1" stroke-opacity="1"/><path d="M1584,163L1747,361L1836,44Z" fill="#71a69d" stroke="#71a69d" fill-opacity="1" stroke-opacity="1"/><path d="M1836,44L1747,361L1979,264Z" fill="#6a9d91" stroke="#6a9d91" fill-opacity="1" stroke-opacity="1"/><path d="M1836,44L1979,264L2025,92Z" fill="#769e8a" stroke="#769e8a" fill-opacity="1" stroke-opacity="1"/><path d="M2025,92L1979,264L2204,102Z" fill="#749780" stroke="#749780" fill-opacity="1" stroke-opacity="1"/><path d="M2204,102L1979,264L2204,339Z" fill="#678e7f" stroke="#678e7f" fill-opacity="1" stroke-opacity="1"/><path d="M2204,102L2204,339L2233,767Z" fill="#3c7a7a" stroke="#3c7a7a" fill-opacity="1" stroke-opacity="1"/><path d="M-121,351L-126,554L114,522Z" fill="#aad8eb" stroke="#aad8eb" fill-opacity="1" stroke-opacity="1"/><path d="M-121,351L114,522L148,319Z" fill="#b4d9f5" stroke="#b4d9f5" fill-opacity="1" stroke-opacity="1"/><path d="M148,319L114,522L346,477Z" fill="#9fcfea" stroke="#9fcfea" fill-opacity="1" stroke-opacity="1"/><path d="M148,319L346,477L361,347Z" fill="#a7cfef" stroke="#a7cfef" fill-opacity="1" stroke-opacity="1"/><path d="M361,347L346,477L476,473Z" fill="#92c6e6" stroke="#92c6e6" fill-opacity="1" stroke-opacity="1"/><path d="M361,347L476,473L566,261Z" fill="#9bc9eb" stroke="#9bc9eb" fill-opacity="1" stroke-opacity="1"/><path d="M566,261L476,473L738,305Z" fill="#91c5e8" stroke="#91c5e8" fill-opacity="1" stroke-opacity="1"/><path d="M738,305L476,473L715,545Z" fill="#74bbde" stroke="#74bbde" fill-opacity="1" stroke-opacity="1"/><path d="M738,305L715,545L927,494Z" fill="#62b4d8" stroke="#62b4d8" fill-opacity="1" stroke-opacity="1"/><path d="M738,305L927,494L912,290Z" fill="#70b9dd" stroke="#70b9dd" fill-opacity="1" stroke-opacity="1"/><path d="M912,290L927,494L1162,366Z" fill="#5db3d3" stroke="#5db3d3" fill-opacity="1" stroke-opacity="1"/><path d="M1162,366L927,494L1195,585Z" fill="#3da8be" stroke="#3da8be" fill-opacity="1" stroke-opacity="1"/><path d="M1162,366L1195,585L1352,548Z" fill="#31a1b0" stroke="#31a1b0" fill-opacity="1" stroke-opacity="1"/><path d="M1162,366L1352,548L1398,288Z" fill="#44a5ba" stroke="#44a5ba" fill-opacity="1" stroke-opacity="1"/><path d="M1398,288L1352,548L1524,330Z" fill="#43a0b2" stroke="#43a0b2" fill-opacity="1" stroke-opacity="1"/><path d="M1524,330L1352,548L1635,473Z" fill="#3298a1" stroke="#3298a1" fill-opacity="1" stroke-opacity="1"/><path d="M1524,330L1635,473L1747,361Z" fill="#3f97a0" stroke="#3f97a0" fill-opacity="1" stroke-opacity="1"/><path d="M1747,361L1635,473L1729,497Z" fill="#328f92" stroke="#328f92" fill-opacity="1" stroke-opacity="1"/><path d="M1747,361L1729,497L1941,483Z" fill="#328a89" stroke="#328a89" fill-opacity="1" stroke-opacity="1"/><path d="M1747,361L1941,483L1979,264Z" fill="#448d8b" stroke="#448d8b" fill-opacity="1" stroke-opacity="1"/><path d="M1979,264L1941,483L2166,471Z" fill="#3b837d" stroke="#3b837d" fill-opacity="1" stroke-opacity="1"/><path d="M1979,264L2166,471L2204,339Z" fill="#47837c" stroke="#47837c" fill-opacity="1" stroke-opacity="1"/><path d="M2204,339L2166,471L2233,767Z" fill="#207266" stroke="#207266" fill-opacity="1" stroke-opacity="1"/><path d="M-126,554L-96,1113L-87,967Z" fill="#91b3a2" stroke="#91b3a2" fill-opacity="1" stroke-opacity="1"/><path d="M-126,554L-87,967L-74,786Z" fill="#91bfb6" stroke="#91bfb6" fill-opacity="1" stroke-opacity="1"/><path d="M-126,554L-74,786L72,689Z" fill="#90c6c7" stroke="#90c6c7" fill-opacity="1" stroke-opacity="1"/><path d="M-126,554L72,689L114,522Z" fill="#8bcdd6" stroke="#8bcdd6" fill-opacity="1" stroke-opacity="1"/><path d="M114,522L72,689L293,744Z" fill="#81bfc6" stroke="#81bfc6" fill-opacity="1" stroke-opacity="1"/><path d="M114,522L293,744L346,477Z" fill="#7cc2d1" stroke="#7cc2d1" fill-opacity="1" stroke-opacity="1"/><path d="M346,477L293,744L537,708Z" fill="#6fb4c1" stroke="#6fb4c1" fill-opacity="1" stroke-opacity="1"/><path d="M346,477L537,708L476,473Z" fill="#71bad0" stroke="#71bad0" fill-opacity="1" stroke-opacity="1"/><path d="M476,473L537,708L715,545Z" fill="#5eb4ca" stroke="#5eb4ca" fill-opacity="1" stroke-opacity="1"/><path d="M715,545L537,708L714,677Z" fill="#52a9bb" stroke="#52a9bb" fill-opacity="1" stroke-opacity="1"/><path d="M715,545L714,677L927,494Z" fill="#48acc5" stroke="#48acc5" fill-opacity="1" stroke-opacity="1"/><path d="M927,494L714,677L999,766Z" fill="#3aa1b0" stroke="#3aa1b0" fill-opacity="1" stroke-opacity="1"/><path d="M927,494L999,766L1195,585Z" fill="#2b9fab" stroke="#2b9fab" fill-opacity="1" stroke-opacity="1"/><path d="M1195,585L999,766L1194,783Z" fill="#229192" stroke="#229192" fill-opacity="1" stroke-opacity="1"/><path d="M1195,585L1194,783L1411,764Z" fill="#1c8b87" stroke="#1c8b87" fill-opacity="1" stroke-opacity="1"/><path d="M1195,585L1411,764L1352,548Z" fill="#1a9291" stroke="#1a9291" fill-opacity="1" stroke-opacity="1"/><path d="M1352,548L1411,764L1635,473Z" fill="#158f8d" stroke="#158f8d" fill-opacity="1" stroke-opacity="1"/><path d="M1635,473L1411,764L1617,776Z" fill="#128276" stroke="#128276" fill-opacity="1" stroke-opacity="1"/><path d="M1635,473L1617,776L1729,497Z" fill="#13877e" stroke="#13877e" fill-opacity="1" stroke-opacity="1"/><path d="M1729,497L1617,776L1811,769Z" fill="#127a67" stroke="#127a67" fill-opacity="1" stroke-opacity="1"/><path d="M1729,497L1811,769L1941,483Z" fill="#137f71" stroke="#137f71" fill-opacity="1" stroke-opacity="1"/><path d="M1941,483L1811,769L2036,780Z" fill="#127056" stroke="#127056" fill-opacity="1" stroke-opacity="1"/><path d="M1941,483L2036,780L2166,471Z" fill="#14755f" stroke="#14755f" fill-opacity="1" stroke-opacity="1"/><path d="M2166,471L2036,780L2233,767Z" fill="#12674b" stroke="#12674b" fill-opacity="1" stroke-opacity="1"/><path d="M-74,786L-87,967L132,946Z" fill="#8dac9b" stroke="#8dac9b" fill-opacity="1" stroke-opacity="1"/><path d="M-74,786L132,946L72,689Z" fill="#8ab4ac" stroke="#8ab4ac" fill-opacity="1" stroke-opacity="1"/><path d="M72,689L132,946L293,744Z" fill="#80afab" stroke="#80afab" fill-opacity="1" stroke-opacity="1"/><path d="M293,744L132,946L269,909Z" fill="#7ca49b" stroke="#7ca49b" fill-opacity="1" stroke-opacity="1"/><path d="M293,744L269,909L547,977Z" fill="#719c95" stroke="#719c95" fill-opacity="1" stroke-opacity="1"/><path d="M293,744L547,977L537,708Z" fill="#68a09f" stroke="#68a09f" fill-opacity="1" stroke-opacity="1"/><path d="M537,708L547,977L712,914Z" fill="#589391" stroke="#589391" fill-opacity="1" stroke-opacity="1"/><path d="M537,708L712,914L714,677Z" fill="#529ca3" stroke="#529ca3" fill-opacity="1" stroke-opacity="1"/><path d="M714,677L712,914L999,766Z" fill="#41949a" stroke="#41949a" fill-opacity="1" stroke-opacity="1"/><path d="M999,766L712,914L941,984Z" fill="#3a8681" stroke="#3a8681" fill-opacity="1" stroke-opacity="1"/><path d="M999,766L941,984L1205,1009Z" fill="#2a7e6f" stroke="#2a7e6f" fill-opacity="1" stroke-opacity="1"/><path d="M999,766L1205,1009L1194,783Z" fill="#228276" stroke="#228276" fill-opacity="1" stroke-opacity="1"/><path d="M1194,783L1205,1009L1334,910Z" fill="#1d7864" stroke="#1d7864" fill-opacity="1" stroke-opacity="1"/><path d="M1194,783L1334,910L1411,764Z" fill="#1a7e6e" stroke="#1a7e6e" fill-opacity="1" stroke-opacity="1"/><path d="M1411,764L1334,910L1538,962Z" fill="#167259" stroke="#167259" fill-opacity="1" stroke-opacity="1"/><path d="M1411,764L1538,962L1617,776Z" fill="#137259" stroke="#137259" fill-opacity="1" stroke-opacity="1"/><path d="M1617,776L1538,962L1801,912Z" fill="#126745" stroke="#126745" fill-opacity="1" stroke-opacity="1"/><path d="M1617,776L1801,912L1811,769Z" fill="#126a4a" stroke="#126a4a" fill-opacity="1" stroke-opacity="1"/><path d="M1811,769L1801,912L2002,896Z" fill="#125f38" stroke="#125f38" fill-opacity="1" stroke-opacity="1"/><path d="M1811,769L2002,896L2036,780Z" fill="#12603a" stroke="#12603a" fill-opacity="1" stroke-opacity="1"/><path d="M2036,780L2002,896L2214,980Z" fill="#125222" stroke="#125222" fill-opacity="1" stroke-opacity="1"/><path d="M2036,780L2214,980L2233,767Z" fill="#12532a" stroke="#12532a" fill-opacity="1" stroke-opacity="1"/><path d="M-87,967L-96,1113L49,1104Z" fill="#909c7d" stroke="#909c7d" fill-opacity="1" stroke-opacity="1"/><path d="M-87,967L49,1104L132,946Z" fill="#8a9f85" stroke="#8a9f85" fill-opacity="1" stroke-opacity="1"/><path d="M132,946L49,1104L351,1195Z" fill="#808f77" stroke="#808f77" fill-opacity="1" stroke-opacity="1"/><path d="M132,946L351,1195L269,909Z" fill="#7a927d" stroke="#7a927d" fill-opacity="1" stroke-opacity="1"/><path d="M269,909L351,1195L547,977Z" fill="#708b77" stroke="#708b77" fill-opacity="1" stroke-opacity="1"/><path d="M547,977L351,1195L501,1183Z" fill="#677d6f" stroke="#677d6f" fill-opacity="1" stroke-opacity="1"/><path d="M547,977L501,1183L677,1132Z" fill="#5b7b6c" stroke="#5b7b6c" fill-opacity="1" stroke-opacity="1"/><path d="M547,977L677,1132L712,914Z" fill="#538275" stroke="#538275" fill-opacity="1" stroke-opacity="1"/><path d="M712,914L677,1132L941,984Z" fill="#447c71" stroke="#447c71" fill-opacity="1" stroke-opacity="1"/><path d="M941,984L677,1132L971,1143Z" fill="#3c7161" stroke="#3c7161" fill-opacity="1" stroke-opacity="1"/><path d="M941,984L971,1143L1205,1009Z" fill="#2b7057" stroke="#2b7057" fill-opacity="1" stroke-opacity="1"/><path d="M1205,1009L971,1143L1191,1183Z" fill="#23664f" stroke="#23664f" fill-opacity="1" stroke-opacity="1"/><path d="M1205,1009L1191,1183L1344,1212Z" fill="#1c5e45" stroke="#1c5e45" fill-opacity="1" stroke-opacity="1"/><path d="M1205,1009L1344,1212L1334,910Z" fill="#1b6644" stroke="#1b6644" fill-opacity="1" stroke-opacity="1"/><path d="M1334,910L1344,1212L1538,962Z" fill="#17623e" stroke="#17623e" fill-opacity="1" stroke-opacity="1"/><path d="M1538,962L1344,1212L1571,1186Z" fill="#145531" stroke="#145531" fill-opacity="1" stroke-opacity="1"/><path d="M1538,962L1571,1186L1736,1116Z" fill="#125226" stroke="#125226" fill-opacity="1" stroke-opacity="1"/><path d="M1538,962L1736,1116L1801,912Z" fill="#12582c" stroke="#12582c" fill-opacity="1" stroke-opacity="1"/><path d="M1801,912L1736,1116L1980,1204Z" fill="#124914" stroke="#124914" fill-opacity="1" stroke-opacity="1"/><path d="M1801,912L1980,1204L2002,896Z" fill="#124c17" stroke="#124c17" fill-opacity="1" stroke-opacity="1"/><path d="M2002,896L1980,1204L2191,1104Z" fill="#123f01" stroke="#123f01" fill-opacity="1" stroke-opacity="1"/><path d="M2002,896L2191,1104L2214,980Z" fill="#12440d" stroke="#12440d" fill-opacity="1" stroke-opacity="1"/><path d="M-96,1113L351,1195L49,1104Z" fill="#858d79" stroke="#858d79" fill-opacity="1" stroke-opacity="1"/><path d="M351,1195L1344,1212L501,1183Z" fill="#496a69" stroke="#496a69" fill-opacity="1" stroke-opacity="1"/><path d="M501,1183L1344,1212L1191,1183Z" fill="#2d6157" stroke="#2d6157" fill-opacity="1" stroke-opacity="1"/><path d="M501,1183L1191,1183L971,1143Z" fill="#3a675f" stroke="#3a675f" fill-opacity="1" stroke-opacity="1"/><path d="M501,1183L971,1143L677,1132Z" fill="#4b6f69" stroke="#4b6f69" fill-opacity="1" stroke-opacity="1"/><path d="M1344,1212L1980,1204L1571,1186Z" fill="#124525" stroke="#124525" fill-opacity="1" stroke-opacity="1"/><path d="M1571,1186L1980,1204L1736,1116Z" fill="#12421a" stroke="#12421a" fill-opacity="1" stroke-opacity="1"/></g><filter id="noise"><feTurbulence type="fractalNoise" in="fillPaint" fill="#F00" baseFrequency="0.7" numOctaves="10" stitchTiles="stitch"/><feComponentTransfer><feFuncR type="linear" slope="2" intercept="-.5"/><feFuncG type="linear" slope="2" intercept="-.5"/><feFuncB type="linear" slope="2" intercept="-.5"/></feComponentTransfer><feColorMatrix type="matrix" values="0.3333 0.3333 0.3333 0 0 
 0.3333 0.3333 0.3333 0 0 
 0.3333 0.3333 0.3333 0 0 
 0 0 0 1 0"/></filter><rect opacity="0.8" width="100%" height="100%" filter="url(#noise)"/></svg>